<svg xmlns="http://www.w3.org/2000/svg" width="39.582" height="27.829" viewBox="0 0 39.582 27.829">
  <g id="Grupo_39" data-name="Grupo 39" transform="translate(-176.799 -718.832)">
    <path id="Trazado_10" data-name="Trazado 10" d="M178.9,718.832c.214.251.341.42.488.569q7.925,7.994,15.855,15.981c.955.961,1.791.912,2.82-.124q7.758-7.818,15.511-15.642c.214-.216.408-.453.7-.783Zm35.134,27.829-11.675-11.577c-.617.685-1.321,1.519-2.081,2.3a5.214,5.214,0,0,1-2.951,1.709,4.836,4.836,0,0,1-4.41-1.68c-.771-.806-1.485-1.668-2.012-2.264l-11.721,11.513Zm-37.235-2.7,11.242-11.016L176.8,721.724Zm39.582-22.291L205,733l11.376,11.148Z" fill="#fff"/>
    <path id="Trazado_11" data-name="Trazado 11" d="M187.661,718.832h35.377c-.3.33-.489.567-.7.783q-7.753,7.823-15.511,15.642c-1.028,1.036-1.865,1.085-2.82.124q-7.936-7.982-15.855-15.981C188,719.252,187.876,719.083,187.661,718.832Z" transform="translate(-8.761)" fill="#fff"/>
    <path id="Trazado_12" data-name="Trazado 12" d="M223.981,814.432h-34.85l11.721-11.513c.527.6,1.24,1.457,2.012,2.264a4.836,4.836,0,0,0,4.41,1.68,5.214,5.214,0,0,0,2.951-1.709c.76-.779,1.464-1.613,2.081-2.3Z" transform="translate(-9.947 -67.771)" fill="#fff"/>
    <path id="Trazado_13" data-name="Trazado 13" d="M176.8,756.023v-22.24l11.242,11.224Z" transform="translate(0 -12.059)" fill="#fff"/>
    <path id="Trazado_14" data-name="Trazado 14" d="M334,733.521v22.472l-11.376-11.148Z" transform="translate(-117.619 -11.848)" fill="#fff"/>
  </g>
</svg>
