<svg xmlns="http://www.w3.org/2000/svg" width="36.445" height="36.585" viewBox="0 0 36.445 36.585">
  <g id="Grupo_38" data-name="Grupo 38" transform="translate(618.197 -194.472)">
    <path id="Trazado_8" data-name="Trazado 8" d="M-618.2,231.058c.514-1.877,1.009-3.688,1.505-5.5.326-1.192.648-2.386.985-3.575a.745.745,0,0,0-.077-.613,17.992,17.992,0,0,1,2.126-20.564,17.56,17.56,0,0,1,15.262-6.273,18.053,18.053,0,0,1,16.055,13.486,18.168,18.168,0,0,1-14.707,22.5,17.887,17.887,0,0,1-11.252-1.833.757.757,0,0,0-.588-.068q-4.459,1.181-8.921,2.346C-617.918,230.992-618.031,231.017-618.2,231.058Zm4.372-4.334c.122-.023.189-.032.254-.049,1.655-.433,3.311-.858,4.961-1.309a1.065,1.065,0,0,1,.911.13,14.857,14.857,0,0,0,9.708,2.055,15.1,15.1,0,0,0,13.014-17.1,15.081,15.081,0,0,0-23.34-10.351,15.065,15.065,0,0,0-6.391,15.3,15.118,15.118,0,0,0,2.239,5.515.594.594,0,0,1,.087.549c-.161.529-.3,1.066-.444,1.6Z" transform="translate(0 0)" fill="#fff"/>
    <path id="Trazado_9" data-name="Trazado 9" d="M-462.144,358.432c.165,0,.255.006.343,0a1.108,1.108,0,0,1,1.193.779c.485,1.169.985,2.332,1.444,3.51a.9.9,0,0,1-.04.7,14.019,14.019,0,0,1-1.115,1.523c-.339.409-.384.571-.112,1.028a12.35,12.35,0,0,0,6.211,5.325.654.654,0,0,0,.895-.21q.7-.841,1.38-1.707c.289-.37.482-.472.916-.29.72.3,1.424.64,2.13.973.527.249,1.043.522,1.572.768a.717.717,0,0,1,.462.741,3.543,3.543,0,0,1-1.777,3.235,4.983,4.983,0,0,1-3.8.565,16.505,16.505,0,0,1-9.9-6.382,20.349,20.349,0,0,1-2.192-3.309,6.074,6.074,0,0,1-.576-4.341,5.19,5.19,0,0,1,1.573-2.5A1.716,1.716,0,0,1-462.144,358.432Z" transform="translate(-143.828 -154.215)" fill="#fff"/>
  </g>
</svg>
