<svg xmlns="http://www.w3.org/2000/svg" width="34.143" height="36.585" viewBox="0 0 34.143 36.585">
  <g id="Grupo_37" data-name="Grupo 37" transform="translate(-651.434 -325.416)">
    <path id="Trazado_7" data-name="Trazado 7" d="M651.434,336.623a11.394,11.394,0,0,1,4.378-9.309c.512-.4.981-.863,1.494-1.266a2.454,2.454,0,0,1,3.447.156,15.227,15.227,0,0,1,2.651,3.6,16.917,16.917,0,0,1,1.324,2.667,3.437,3.437,0,0,1-1.02,4.1c-.648.563-1.306,1.116-1.987,1.637A3.088,3.088,0,0,0,660.6,342.2a14.4,14.4,0,0,0,2.178,3.721,25.456,25.456,0,0,0,5.446,5.522,8.371,8.371,0,0,0,1.775.921,2.683,2.683,0,0,0,2.991-.649c.694-.666,1.392-1.329,2.112-1.966a3.54,3.54,0,0,1,4.122-.555,13.98,13.98,0,0,1,3.527,2.572,19.376,19.376,0,0,1,2.2,2.3,2.337,2.337,0,0,1-.29,3.455,17.43,17.43,0,0,1-4.537,3.437,11.957,11.957,0,0,1-7.811.681,19.9,19.9,0,0,1-8.216-4.346,44.056,44.056,0,0,1-9.292-10.632,20.754,20.754,0,0,1-3.26-8.6C651.48,337.554,651.464,337.037,651.434,336.623Z" fill="#fff"/>
  </g>
</svg>
