<svg xmlns="http://www.w3.org/2000/svg" xmlns:xlink="http://www.w3.org/1999/xlink" viewBox="0 0 813.77 781.04"><defs><style>.cls-1{fill:none;}.cls-2{clip-path:url(#clip-path);}.cls-3{fill:#000001;}.cls-4{fill:#010002;}.cls-5{fill:#010103;}.cls-6{fill:#010104;}.cls-7{fill:#010105;}.cls-8{fill:#020106;}.cls-9{fill:#020107;}.cls-10{fill:#020208;}.cls-11{fill:#030209;}.cls-12{fill:#03020a;}.cls-13{fill:#03020b;}.cls-14{fill:#03030c;}.cls-15{fill:#04030d;}.cls-16{fill:#04030e;}.cls-17{fill:#04030f;}.cls-18{fill:#040310;}.cls-19{fill:#050411;}.cls-20{fill:#050412;}.cls-21{fill:#050413;}.cls-22{fill:#060414;}.cls-23{fill:#060415;}.cls-24{fill:#060517;}.cls-25{fill:#060518;}.cls-26{fill:#070519;}.cls-27{fill:#07051a;}.cls-28{fill:#07051b;}.cls-29{fill:#08061c;}.cls-30{fill:#08061d;}.cls-31{fill:#08061e;}.cls-32{fill:#08061f;}.cls-33{fill:#090620;}.cls-34{fill:#090721;}.cls-35{fill:#090722;}.cls-36{fill:#090723;}.cls-37{fill:#0a0724;}.cls-38{fill:#0a0825;}.cls-39{fill:#0a0826;}.cls-40{fill:#0b0827;}.cls-41{fill:#0b0828;}.cls-42{fill:#0b0829;}.cls-43{fill:#0b092a;}.cls-44{fill:#0c092b;}.cls-45{fill:#0c092c;}.cls-46{fill:#0c092d;}.cls-47{fill:#0d092e;}.cls-48{fill:#0d0a2f;}.cls-49{fill:#0d0a30;}.cls-50{fill:#0d0a31;}.cls-51{fill:#0e0a32;}.cls-52{fill:#0e0a33;}.cls-53{fill:#0e0b34;}.cls-54{fill:#0e0b35;}.cls-55{fill:#0f0b36;}.cls-56{fill:#0f0b37;}.cls-57{fill:#0f0b38;}.cls-58{fill:#0f0c39;}.cls-59{fill:#100c3a;}.cls-60{fill:#100c3b;}.cls-61{fill:#100c3c;}.cls-62{fill:#100c3d;}.cls-63{fill:#110c3e;}.cls-64{fill:#110d3f;}.cls-65{fill:#110d40;}.cls-66{fill:#120d41;}.cls-67{fill:#120d42;}.cls-68{fill:#120d43;}.cls-69{fill:#120e44;}.cls-70{fill:#130e45;}.cls-71{fill:#130e46;}.cls-72{fill:#130e47;}.cls-73{fill:#130e48;}.cls-74{fill:#140f4a;}.cls-75{fill:#140f4b;}.cls-76{fill:#140f4c;}.cls-77{fill:#140f4d;}.cls-78{fill:#150f4e;}.cls-79{fill:#15104f;}.cls-80{fill:#151050;}.cls-81{fill:#151051;}.cls-82{fill:#161052;}.cls-83{fill:#161053;}.cls-84{fill:#161154;}.cls-85{fill:#171155;}.cls-86{fill:#171156;}.cls-87{fill:#171157;}.cls-88{fill:#171158;}.cls-89{fill:#181159;}.cls-90{fill:#18125a;}.cls-91{fill:#18125b;}.cls-92{fill:#18125c;}.cls-93{fill:#19125d;}.cls-94{fill:#19125e;}.cls-95{fill:#19135f;}.cls-96{fill:#191360;}.cls-97{fill:#1a1361;}.cls-98{fill:#1a1362;}.cls-99{fill:#1a1363;}.cls-100{fill:#1a1464;}.cls-101{fill:#1b1465;}.cls-102{fill:#1b1466;}.cls-103{fill:#1c1466;}.cls-104{fill:#1d1465;}.cls-105{fill:#1e1465;}.cls-106{fill:#1f1465;}.cls-107{fill:#201465;}.cls-108{fill:#211464;}.cls-109{fill:#221464;}.cls-110{fill:#231464;}.cls-111{fill:#241464;}.cls-112{fill:#251463;}.cls-113{fill:#261463;}.cls-114{fill:#271463;}.cls-115{fill:#281463;}.cls-116{fill:#291462;}.cls-117{fill:#2a1462;}.cls-118{fill:#2b1462;}.cls-119{fill:#2c1462;}.cls-120{fill:#2d1461;}.cls-121{fill:#2e1461;}.cls-122{fill:#2f1461;}.cls-123{fill:#301460;}.cls-124{fill:#311460;}.cls-125{fill:#321460;}.cls-126{fill:#331460;}.cls-127{fill:#34145f;}.cls-128{fill:#35145f;}.cls-129{fill:#36145f;}.cls-130{fill:#37145f;}.cls-131{fill:#38145e;}.cls-132{fill:#39145e;}.cls-133{fill:#3a145e;}.cls-134{fill:#3b145e;}.cls-135{fill:#3c145d;}.cls-136{fill:#3d145d;}.cls-137{fill:#3e145d;}.cls-138{fill:#3f145d;}.cls-139{fill:#40145c;}.cls-140{fill:#41145c;}.cls-141{fill:#42145c;}.cls-142{fill:#43145c;}.cls-143{fill:#44145b;}.cls-144{fill:#45145b;}.cls-145{fill:#46145b;}.cls-146{fill:#47145a;}.cls-147{fill:#48145a;}.cls-148{fill:#49145a;}.cls-149{fill:#4a145a;}.cls-150{fill:#4b1459;}.cls-151{fill:#4c1459;}.cls-152{fill:#4d1459;}.cls-153{fill:#4e1459;}.cls-154{fill:#4f1458;}.cls-155{fill:#501458;}.cls-156{fill:#511458;}.cls-157{fill:#521458;}.cls-158{fill:#531457;}.cls-159{fill:#541457;}.cls-160{fill:#551457;}.cls-161{fill:#561457;}.cls-162{fill:#571456;}.cls-163{fill:#581456;}.cls-164{fill:#591456;}.cls-165{fill:#5a1455;}.cls-166{fill:#5b1455;}.cls-167{fill:#5c1455;}.cls-168{fill:#5d1455;}.cls-169{fill:#5e1454;}.cls-170{fill:#5f1454;}.cls-171{fill:#601454;}.cls-172{fill:#611454;}.cls-173{fill:#621453;}.cls-174{fill:#631453;}.cls-175{fill:#641453;}.cls-176{fill:#651453;}.cls-177{fill:#661452;}.cls-178{fill:#671452;}.cls-179{fill:#681452;}.cls-180{fill:#691452;}.cls-181{fill:#6a1451;}.cls-182{fill:#6b1451;}.cls-183{fill:#6c1451;}.cls-184{fill:#6d1450;}.cls-185{fill:#6e1450;}.cls-186{fill:#6f1450;}.cls-187{fill:#701450;}.cls-188{fill:#71144f;}.cls-189{fill:#72144f;}.cls-190{fill:#73144f;}.cls-191{fill:#74144f;}.cls-192{fill:#75144e;}.cls-193{fill:#76144e;}.cls-194{fill:#78134e;}.cls-195{fill:#79134e;}.cls-196{fill:#7a134d;}.cls-197{fill:#7b134d;}.cls-198{fill:#7c134d;}.cls-199{fill:#7d134d;}.cls-200{fill:#7e134c;}.cls-201{fill:#7f134c;}.cls-202{fill:#80134c;}.cls-203{fill:#81134c;}.cls-204{fill:#82134b;}.cls-205{fill:#83134b;}.cls-206{fill:#84134b;}.cls-207{fill:#85134a;}.cls-208{fill:#86134a;}.cls-209{fill:#87134a;}.cls-210{fill:#88134a;}.cls-211{fill:#891349;}.cls-212{fill:#8a1349;}.cls-213{fill:#8b1349;}.cls-214{fill:#8c1349;}.cls-215{fill:#8d1348;}.cls-216{fill:#8e1348;}.cls-217{fill:#8f1348;}.cls-218{fill:#901348;}.cls-219{fill:#911347;}.cls-220{fill:#921347;}.cls-221{fill:#931347;}.cls-222{fill:#941347;}.cls-223{fill:#951346;}.cls-224{fill:#961346;}.cls-225{fill:#971346;}.cls-226{fill:#981345;}.cls-227{fill:#991345;}.cls-228{fill:#9a1345;}.cls-229{fill:#9b1345;}.cls-230{fill:#9c1344;}.cls-231{fill:#9d1344;}.cls-232{fill:#9e1344;}.cls-233{fill:#9f1344;}.cls-234{fill:#a01343;}.cls-235{fill:#a11343;}.cls-236{fill:#a21343;}.cls-237{fill:#a31343;}.cls-238{fill:#a41342;}.cls-239{fill:#a51342;}.cls-240{fill:#a61342;}.cls-241{fill:#a71342;}.cls-242{fill:#a81341;}.cls-243{fill:#a91341;}.cls-244{fill:#aa1341;}.cls-245{fill:#ab1340;}.cls-246{fill:#ac1340;}.cls-247{fill:#ad1340;}.cls-248{fill:#ae1340;}.cls-249{fill:#af133f;}.cls-250{fill:#b0133f;}.cls-251{fill:#b1133f;}.cls-252{fill:#b2133f;}.cls-253{fill:#b3133e;}.cls-254{fill:#b4133e;}.cls-255{fill:#b5133e;}.cls-256{fill:#b6133e;}.cls-257{fill:#b7133d;}.cls-258{fill:#b8133d;}.cls-259{fill:#b9133d;}.cls-260{fill:#ba133d;}.cls-261{fill:#bb133c;}.cls-262{fill:#bc133c;}.cls-263{fill:#bd133c;}.cls-264{fill:#be133c;}.cls-265{fill:#bf133b;}.cls-266{fill:#c0133b;}.cls-267{fill:#c1133b;}.cls-268{fill:#c2133a;}.cls-269{fill:#c3133a;}.cls-270{fill:#c4133a;}.cls-271{fill:#c5133a;}.cls-272{fill:#c61339;}.cls-273{fill:#c71339;}.cls-274{fill:#c81339;}.cls-275{fill:#c91339;}.cls-276{fill:#ca1338;}.cls-277{fill:#cb1338;}.cls-278{fill:#cc1338;}.cls-279{fill:#cd1338;}.cls-280{fill:#ce1337;}.cls-281{fill:#cf1337;}.cls-282{fill:#d01337;}.cls-283{fill:#d11337;}.cls-284{fill:#d21336;}.cls-285{fill:#d31336;}.cls-286{fill:#d41335;}.cls-287{fill:#d51434;}.cls-288{fill:#d61434;}.cls-289{fill:#d71433;}.cls-290{fill:#d81532;}.cls-291{fill:#d91531;}.cls-292{fill:#da1630;}.cls-293{fill:#db1630;}.cls-294{fill:#dd162f;}.cls-295{fill:#de172e;}.cls-296{fill:#df172d;}.cls-297{fill:#e0172c;}.cls-298{fill:#e1182b;}.cls-299{fill:#e2182b;}.cls-300{fill:#e3192a;}.cls-301{fill:#e41929;}.cls-302{fill:#e41a29;}.cls-303{fill:#e41b29;}.cls-304{fill:#e41c28;}.cls-305{fill:#e51d28;}.cls-306{fill:#e51e28;}.cls-307{fill:#e51f28;}.cls-308{fill:#e52028;}.cls-309{fill:#e52127;}.cls-310{fill:#e52227;}.cls-311{fill:#e62327;}.cls-312{fill:#e62427;}.cls-313{fill:#e62527;}.cls-314{fill:#e62627;}.cls-315{fill:#e62726;}.cls-316{fill:#e62826;}.cls-317{fill:#e72926;}.cls-318{fill:#e72a26;}.cls-319{fill:#e72b26;}.cls-320{fill:#e72d25;}.cls-321{fill:#e72e25;}.cls-322{fill:#e72f25;}.cls-323{fill:#e83025;}.cls-324{fill:#e83125;}.cls-325{fill:#e83224;}.cls-326{fill:#e83324;}.cls-327{fill:#e83424;}.cls-328{fill:#e83524;}.cls-329{fill:#e93624;}.cls-330{fill:#e93724;}.cls-331{fill:#e93823;}.cls-332{fill:#e93923;}.cls-333{fill:#e93a23;}.cls-334{fill:#e93b23;}.cls-335{fill:#ea3c23;}.cls-336{fill:#ea3d22;}.cls-337{fill:#ea3e22;}.cls-338{fill:#ea3f22;}.cls-339{fill:#fff;}</style><clipPath id="clip-path" transform="translate(68.18 66.23)"><path class="cls-1" d="M675.65,269.33c-.08.34-.17.67-.25,1L567.12,603.56l-5.23,16a41.72,41.72,0,0,1-39.64,28.75H155a41.57,41.57,0,0,1-39.47-28.75L2,270.33a41.45,41.45,0,0,1,15.13-46.45L314.25,8a41.36,41.36,0,0,1,48.86,0L660.28,223.88A41.41,41.41,0,0,1,675.65,269.33Z"/></clipPath></defs><g id="Capa_2" data-name="Capa 2"><g id="Capa_1-2" data-name="Capa 1"><g class="cls-2"><rect x="64.66" y="66.07" width="684.24" height="648.51"/><polygon points="757.21 697.9 757.21 722.89 56.35 722.89 56.35 57.76 757.21 57.76 757.21 697.9"/><polygon class="cls-3" points="757.21 695.71 757.21 722.89 56.35 722.89 56.35 57.76 757.21 57.76 757.21 695.71"/><polygon class="cls-4" points="757.21 693.52 757.21 722.89 56.35 722.89 56.35 57.76 757.21 57.76 757.21 693.52"/><polygon class="cls-5" points="757.21 691.33 757.21 722.89 56.35 722.89 56.35 57.76 757.21 57.76 757.21 691.33"/><polygon class="cls-6" points="757.21 689.14 757.21 722.89 56.35 722.89 56.35 57.76 757.21 57.76 757.21 689.14"/><polygon class="cls-7" points="757.21 686.95 757.21 722.89 56.35 722.89 56.35 57.76 757.21 57.76 757.21 686.95"/><polygon class="cls-8" points="757.21 684.76 757.21 722.89 56.35 722.89 56.35 57.76 757.21 57.76 757.21 684.76"/><polygon class="cls-9" points="757.21 682.57 757.21 722.89 56.35 722.89 56.35 57.76 757.21 57.76 757.21 682.57"/><polygon class="cls-10" points="757.21 680.38 757.21 722.89 56.35 722.89 56.35 57.76 757.21 57.76 757.21 680.38"/><polygon class="cls-11" points="757.21 678.18 757.21 722.89 56.35 722.89 56.35 57.76 757.21 57.76 757.21 678.18"/><polygon class="cls-12" points="757.21 675.99 757.21 722.89 56.35 722.89 56.35 57.76 757.21 57.76 757.21 675.99"/><polygon class="cls-13" points="757.21 673.8 757.21 722.89 56.35 722.89 56.35 57.76 757.21 57.76 757.21 673.8"/><polygon class="cls-14" points="757.21 671.61 757.21 722.89 56.35 722.89 56.35 57.76 757.21 57.76 757.21 671.61"/><polygon class="cls-15" points="757.21 669.42 757.21 722.89 56.35 722.89 56.35 57.76 757.21 57.76 757.21 669.42"/><polygon class="cls-16" points="757.21 667.23 757.21 722.89 56.35 722.89 56.35 57.76 757.21 57.76 757.21 667.23"/><polygon class="cls-17" points="757.21 665.04 757.21 722.89 56.35 722.89 56.35 57.76 757.21 57.76 757.21 665.04"/><polygon class="cls-18" points="757.21 662.85 757.21 722.89 56.35 722.89 56.35 57.76 757.21 57.76 757.21 662.85"/><polygon class="cls-19" points="757.21 660.66 757.21 722.89 56.35 722.89 56.35 57.76 757.21 57.76 757.21 660.66"/><polygon class="cls-20" points="757.21 658.47 757.21 722.89 56.35 722.89 56.35 57.76 757.21 57.76 757.21 658.47"/><polygon class="cls-21" points="757.21 656.28 757.21 722.89 56.35 722.89 56.35 57.76 757.21 57.76 757.21 656.28"/><polygon class="cls-22" points="757.21 654.09 757.21 722.89 56.35 722.89 56.35 57.76 757.21 57.76 757.21 654.09"/><polygon class="cls-23" points="757.21 651.89 757.21 722.89 56.35 722.89 56.35 57.76 757.21 57.76 757.21 651.89"/><polygon class="cls-24" points="757.21 649.7 757.21 722.89 56.35 722.89 56.35 57.76 757.21 57.76 757.21 649.7"/><polygon class="cls-25" points="757.21 647.51 757.21 722.89 56.35 722.89 56.35 57.76 757.21 57.76 757.21 647.51"/><polygon class="cls-26" points="757.21 645.32 757.21 722.89 56.35 722.89 56.35 57.76 757.21 57.76 757.21 645.32"/><polygon class="cls-27" points="757.21 643.13 757.21 722.89 56.35 722.89 56.35 57.76 757.21 57.76 757.21 643.13"/><polygon class="cls-28" points="757.21 640.94 757.21 722.89 56.35 722.89 56.35 57.76 757.21 57.76 757.21 640.94"/><polygon class="cls-29" points="757.21 638.75 757.21 722.89 56.35 722.89 56.35 57.76 757.21 57.76 757.21 638.75"/><polygon class="cls-30" points="757.21 636.56 757.21 722.89 56.35 722.89 56.35 57.76 757.21 57.76 757.21 636.56"/><polygon class="cls-31" points="757.21 634.37 757.21 722.89 56.35 722.89 56.35 57.76 757.21 57.76 757.21 634.37"/><polygon class="cls-32" points="757.21 632.18 757.21 722.89 56.35 722.89 56.35 57.76 757.21 57.76 757.21 632.18"/><polygon class="cls-33" points="757.21 629.99 757.21 722.89 56.35 722.89 56.35 57.76 757.21 57.76 757.21 629.99"/><polygon class="cls-34" points="757.21 627.8 757.21 722.89 56.35 722.89 56.35 57.76 757.21 57.76 757.21 627.8"/><polygon class="cls-35" points="757.21 625.61 757.21 722.89 56.35 722.89 56.35 57.76 757.21 57.76 757.21 625.61"/><polygon class="cls-36" points="757.21 623.41 757.21 722.89 56.35 722.89 56.35 57.76 757.21 57.76 757.21 623.41"/><polygon class="cls-37" points="757.21 621.22 757.21 722.89 56.35 722.89 56.35 57.76 757.21 57.76 757.21 621.22"/><polygon class="cls-38" points="757.21 619.03 757.21 722.89 56.35 722.89 56.35 57.76 757.21 57.76 757.21 619.03"/><polygon class="cls-39" points="757.21 616.84 757.21 722.89 56.35 722.89 56.35 57.76 757.21 57.76 757.21 616.84"/><polygon class="cls-40" points="757.21 614.65 757.21 722.89 56.35 722.89 56.35 57.76 757.21 57.76 757.21 614.65"/><polygon class="cls-41" points="757.21 612.46 757.21 722.89 56.35 722.89 56.35 57.76 757.21 57.76 757.21 612.46"/><polygon class="cls-42" points="757.21 610.27 757.21 722.89 56.35 722.89 56.35 57.76 757.21 57.76 757.21 610.27"/><polygon class="cls-43" points="757.21 608.08 757.21 722.89 56.35 722.89 56.35 57.76 757.21 57.76 757.21 608.08"/><polygon class="cls-44" points="757.21 605.89 757.21 722.89 56.35 722.89 56.35 57.76 757.21 57.76 757.21 605.89"/><polygon class="cls-45" points="757.21 603.7 757.21 722.89 56.35 722.89 56.35 57.76 757.21 57.76 757.21 603.7"/><polygon class="cls-45" points="757.21 601.51 757.21 722.89 56.35 722.89 56.35 57.76 757.21 57.76 757.21 601.51"/><polygon class="cls-46" points="757.21 599.93 757.21 722.89 56.35 722.89 56.35 57.76 757.21 57.76 757.21 599.93"/><polygon class="cls-47" points="757.21 598.36 757.21 722.89 56.35 722.89 56.35 57.76 757.21 57.76 757.21 598.36"/><polygon class="cls-48" points="757.21 596.78 757.21 722.89 56.35 722.89 56.35 57.76 757.21 57.76 757.21 596.78"/><polygon class="cls-49" points="757.21 595.21 757.21 722.89 56.35 722.89 56.35 57.76 757.21 57.76 757.21 595.21"/><polygon class="cls-50" points="757.21 593.63 757.21 722.89 56.35 722.89 56.35 57.76 757.21 57.76 757.21 593.63"/><polygon class="cls-51" points="757.21 592.05 757.21 722.89 56.35 722.89 56.35 57.76 757.21 57.76 757.21 592.05"/><polygon class="cls-52" points="757.21 590.48 757.21 722.89 56.35 722.89 56.35 57.76 757.21 57.76 757.21 590.48"/><polygon class="cls-53" points="757.21 588.9 757.21 722.89 56.35 722.89 56.35 57.76 757.21 57.76 757.21 588.9"/><polygon class="cls-54" points="757.21 587.33 757.21 722.89 56.35 722.89 56.35 57.76 757.21 57.76 757.21 587.33"/><polygon class="cls-55" points="757.21 585.75 757.21 722.89 56.35 722.89 56.35 57.76 757.21 57.76 757.21 585.75"/><polygon class="cls-56" points="757.21 584.18 757.21 722.89 56.35 722.89 56.35 57.76 757.21 57.76 757.21 584.18"/><polygon class="cls-57" points="757.21 582.6 757.21 722.89 56.35 722.89 56.35 57.76 757.21 57.76 757.21 582.6"/><polygon class="cls-58" points="757.21 581.03 757.21 722.89 56.35 722.89 56.35 57.76 757.21 57.76 757.21 581.03"/><polygon class="cls-59" points="757.21 579.45 757.21 722.89 56.35 722.89 56.35 57.76 757.21 57.76 757.21 579.45"/><polygon class="cls-60" points="757.21 577.88 757.21 722.89 56.35 722.89 56.35 57.76 757.21 57.76 757.21 577.88"/><polygon class="cls-61" points="757.21 576.3 757.21 722.89 56.35 722.89 56.35 57.76 757.21 57.76 757.21 576.3"/><polygon class="cls-62" points="757.21 574.73 757.21 722.89 56.35 722.89 56.35 57.76 757.21 57.76 757.21 574.73"/><polygon class="cls-63" points="757.21 573.15 757.21 722.89 56.35 722.89 56.35 57.76 757.21 57.76 757.21 573.15"/><polygon class="cls-64" points="757.21 571.57 757.21 722.89 56.35 722.89 56.35 57.76 757.21 57.76 757.21 571.57"/><polygon class="cls-65" points="757.21 570 757.21 722.89 56.35 722.89 56.35 57.76 757.21 57.76 757.21 570"/><polygon class="cls-66" points="757.21 568.42 757.21 722.89 56.35 722.89 56.35 57.76 757.21 57.76 757.21 568.42"/><polygon class="cls-67" points="757.21 566.85 757.21 722.89 56.35 722.89 56.35 57.76 757.21 57.76 757.21 566.85"/><polygon class="cls-68" points="757.21 565.27 757.21 722.89 56.35 722.89 56.35 57.76 757.21 57.76 757.21 565.27"/><polygon class="cls-69" points="757.21 563.7 757.21 722.89 56.35 722.89 56.35 57.76 757.21 57.76 757.21 563.7"/><polygon class="cls-70" points="757.21 562.12 757.21 722.89 56.35 722.89 56.35 57.76 757.21 57.76 757.21 562.12"/><polygon class="cls-71" points="757.21 560.55 757.21 722.89 56.35 722.89 56.35 57.76 757.21 57.76 757.21 560.55"/><polygon class="cls-72" points="757.21 558.97 757.21 722.89 56.35 722.89 56.35 57.76 757.21 57.76 757.21 558.97"/><polygon class="cls-73" points="757.21 557.4 757.21 722.89 56.35 722.89 56.35 57.76 757.21 57.76 757.21 557.4"/><path class="cls-74" d="M689,489.59V592.71h46a1075.06,1075.06,0,0,1-48.78,96.75v-32.8H-11.83V-8.47H689Z" transform="translate(68.18 66.23)"/><path class="cls-75" d="M689,488V590.65h41.36a1071.45,1071.45,0,0,1-48.55,96.29V656.66H-11.83V-8.47H689Z" transform="translate(68.18 66.23)"/><path class="cls-76" d="M689,486.44V588.59h36.72a1067.85,1067.85,0,0,1-48.32,95.83V656.66H-11.83V-8.47H689Z" transform="translate(68.18 66.23)"/><path class="cls-77" d="M689,484.86V586.53h32.08A1061.79,1061.79,0,0,1,673,681.91V656.66H-11.83V-8.47H689Z" transform="translate(68.18 66.23)"/><path class="cls-78" d="M689,483.29V584.47h27.44a1058.18,1058.18,0,0,1-47.86,94.92V656.66H-11.83V-8.47H689Z" transform="translate(68.18 66.23)"/><path class="cls-79" d="M689,481.71v100.7h22.8a1053.46,1053.46,0,0,1-47.63,94.47V656.66h-676V-8.47H689Z" transform="translate(68.18 66.23)"/><path class="cls-80" d="M745.59,480.14a1053.38,1053.38,0,0,1-85.8,194.22v-17.7H-11.83V-8.47H689V480.14Z" transform="translate(68.18 66.23)"/><path class="cls-81" d="M740.76,478.56a1047.44,1047.44,0,0,1-85.38,193.28V656.66H-11.83V-8.47H689v487Z" transform="translate(68.18 66.23)"/><path class="cls-82" d="M735.94,477a1043.46,1043.46,0,0,1-85,192.34V656.66H-11.83V-8.47H689V477Z" transform="translate(68.18 66.23)"/><path class="cls-83" d="M731.11,475.41a1037.51,1037.51,0,0,1-84.55,191.4V656.66H-11.83V-8.47H689V475.41Z" transform="translate(68.18 66.23)"/><path class="cls-84" d="M726.28,473.84A1032.83,1032.83,0,0,1,642.15,664.3v-7.64h-654V-8.47H689V473.84Z" transform="translate(68.18 66.23)"/><path class="cls-85" d="M721.46,472.26a1027.58,1027.58,0,0,1-83.72,189.52v-5.12H-11.83V-8.47H689V472.26Z" transform="translate(68.18 66.23)"/><path class="cls-86" d="M716.63,470.69a1022.51,1022.51,0,0,1-83.3,188.57v-2.6H-11.83V-8.47H689V470.69Z" transform="translate(68.18 66.23)"/><path class="cls-87" d="M711.81,469.11a1018,1018,0,0,1-82.89,187.64v-.09H-11.83V-8.47H689V469.11Z" transform="translate(68.18 66.23)"/><path class="cls-88" d="M707,467.53a1012,1012,0,0,1-82.48,186.7q-12.4,21.82-25.82,42.85V656.66H-11.83V-8.47H689v476Z" transform="translate(68.18 66.23)"/><path class="cls-89" d="M702.15,466a1006.39,1006.39,0,0,1-82.06,185.76q-12.35,21.71-25.69,42.63V656.66H-11.83V-8.47H689V466Z" transform="translate(68.18 66.23)"/><path class="cls-90" d="M697.33,464.38A1002.11,1002.11,0,0,1,615.68,649.2q-12.28,21.6-25.56,42.42v-35H-11.83V-8.47H689V464.38Z" transform="translate(68.18 66.23)"/><path class="cls-91" d="M692.5,462.81a996.37,996.37,0,0,1-81.23,183.87q-12.22,21.5-25.43,42.21V656.66H-11.83V-8.47H689V462.81Z" transform="translate(68.18 66.23)"/><path class="cls-92" d="M687.67,461.23a991.48,991.48,0,0,1-80.81,182.94q-12.17,21.38-25.3,42v-29.5H-11.83V-8.47H689V71.82h44.14A984.06,984.06,0,0,1,687.67,461.23Z" transform="translate(68.18 66.23)"/><path class="cls-93" d="M682.85,459.66a986.44,986.44,0,0,1-80.4,182q-12.11,21.27-25.17,41.77V656.66H-11.83V-8.47H689V72.24h39.08A979.35,979.35,0,0,1,682.85,459.66Z" transform="translate(68.18 66.23)"/><path class="cls-94" d="M678,458.08a981.85,981.85,0,0,1-80,181.06q-12,21.15-25,41.55v-24H-11.83V-8.47H689V72.67h34A974,974,0,0,1,678,458.08Z" transform="translate(68.18 66.23)"/><path class="cls-95" d="M673.2,456.51a976.81,976.81,0,0,1-79.57,180.11q-12,21-24.91,41.34v-21.3H-11.83V-8.47H689V73.1h29A969.29,969.29,0,0,1,673.2,456.51Z" transform="translate(68.18 66.23)"/><path class="cls-96" d="M668.37,454.93A971.24,971.24,0,0,1,589.22,634.1Q565.39,676,537.81,714.81V656.66H-11.83V-8.47H689v82h23.9A964,964,0,0,1,668.37,454.93Z" transform="translate(68.18 66.23)"/><path class="cls-97" d="M663.54,453.36a966.18,966.18,0,0,1-78.73,178.23q-23.71,41.65-51.14,80.28V656.66H-11.83V-8.47H689V74h18.84A958.87,958.87,0,0,1,663.54,453.36Z" transform="translate(68.18 66.23)"/><path class="cls-98" d="M658.72,451.78A961.61,961.61,0,0,1,580.4,629.07q-23.6,41.45-50.87,79.86V656.66H-11.83V-8.47H689V74.38h13.78A954.07,954.07,0,0,1,658.72,451.78Z" transform="translate(68.18 66.23)"/><path class="cls-99" d="M653.89,450.21A956.26,956.26,0,0,1,576,626.56q-23.46,41.22-50.6,79.43V656.66H-11.83V-8.47H685.46v-8.25q8.34,45.27,12.29,91.53A948.8,948.8,0,0,1,653.89,450.21Z" transform="translate(68.18 66.23)"/><path class="cls-100" d="M649.06,448.63A951,951,0,0,1,571.58,624q-23.34,41-50.33,79V656.66H-11.83V-8.47h692.3v-7.34q8.29,45,12.22,91A943.67,943.67,0,0,1,649.06,448.63Z" transform="translate(68.18 66.23)"/><path class="cls-101" d="M644.24,447.06a946.24,946.24,0,0,1-77.07,174.46Q544,662.31,517.11,700.11V656.66H-11.83V-8.47h687.3v-6.42q8.25,44.79,12.16,90.55A938.76,938.76,0,0,1,644.24,447.06Z" transform="translate(68.18 66.23)"/><path class="cls-102" d="M639.41,445.48A940.71,940.71,0,0,1,562.75,619,926,926,0,0,1,513,697.17V656.66H-11.83V-8.47H670.48V-14q8.21,44.57,12.09,90.07A933.61,933.61,0,0,1,639.41,445.48Z" transform="translate(68.18 66.23)"/><path class="cls-102" d="M634.59,443.9a935.17,935.17,0,0,1-76.25,172.59,921.07,921.07,0,0,1-49.52,77.74V656.66H-11.83V-8.47H665.48v-4.59q8.17,44.31,12,89.57A928.83,928.83,0,0,1,634.59,443.9Z" transform="translate(68.18 66.23)"/><path class="cls-103" d="M632.93,443.36a933,933,0,0,1-76.1,172.27q-22.91,40.27-49.42,77.59V656.66H-11.83V-8.47h675.6v-4.28q8.16,44.24,12,89.41A926.66,926.66,0,0,1,632.93,443.36Z" transform="translate(68.18 66.23)"/><path class="cls-104" d="M631.28,442.83a932,932,0,0,1-76,171.94Q532.45,655,506,692.22V656.66H-11.83V-8.47H662.06v-4q8.13,44.16,12,89.25A925.1,925.1,0,0,1,631.28,442.83Z" transform="translate(68.18 66.23)"/><path class="cls-105" d="M629.63,442.29a930.77,930.77,0,0,1-75.82,171.62Q531,654,504.57,691.21V656.66H-11.83V-8.47H660.35v-3.65q8.11,44.05,12,89.07A923.49,923.49,0,0,1,629.63,442.29Z" transform="translate(68.18 66.23)"/><path class="cls-106" d="M628,441.75a929,929,0,0,1-75.68,171.3q-22.78,40-49.15,77.15V656.66h-515V-8.47H658.64v-3.34q8.1,44,11.94,88.91A921.68,921.68,0,0,1,628,441.75Z" transform="translate(68.18 66.23)"/><path class="cls-107" d="M626.32,441.21a926,926,0,0,1-75.53,171q-22.74,40-49.06,77V656.66H-11.83V-8.47H656.93v-3Q665,32.41,668.84,77.24A919.69,919.69,0,0,1,626.32,441.21Z" transform="translate(68.18 66.23)"/><path class="cls-108" d="M624.67,440.67a925.18,925.18,0,0,1-75.39,170.65q-22.69,39.9-49,76.87V656.66H-11.83V-8.47H655.22v-2.71q8.07,43.82,11.89,88.57A918.27,918.27,0,0,1,624.67,440.67Z" transform="translate(68.18 66.23)"/><path class="cls-109" d="M623,440.13a924,924,0,0,1-75.25,170.33q-22.65,39.82-48.87,76.72V656.66H-11.83V-8.47H653.51v-2.4q8.06,43.74,11.87,88.41A916.64,916.64,0,0,1,623,440.13Z" transform="translate(68.18 66.23)"/><path class="cls-110" d="M621.37,439.59a921.54,921.54,0,0,1-75.11,170q-22.62,39.74-48.78,76.58V656.66H-11.83V-8.47H651.8v-2.09q8,43.67,11.85,88.24A914.85,914.85,0,0,1,621.37,439.59Z" transform="translate(68.18 66.23)"/><path class="cls-111" d="M619.71,439.05a920,920,0,0,1-75,169.69q-22.57,39.66-48.69,76.43V656.66H-11.83V-8.47H650.09v-1.77q8,43.56,11.82,88.07A912.86,912.86,0,0,1,619.71,439.05Z" transform="translate(68.18 66.23)"/><path class="cls-112" d="M618.06,438.51a918.16,918.16,0,0,1-74.82,169.37q-22.53,39.58-48.59,76.28v-27.5H-11.83V-8.47H648.38V-9.93q8,43.49,11.8,87.91A911.23,911.23,0,0,1,618.06,438.51Z" transform="translate(68.18 66.23)"/><path class="cls-113" d="M616.41,438a916.62,916.62,0,0,1-74.68,169q-22.49,39.53-48.5,76.15v-26.5H-11.83V-8.47h658.5V-9.62q8,43.41,11.78,87.74A909.44,909.44,0,0,1,616.41,438Z" transform="translate(68.18 66.23)"/><path class="cls-114" d="M614.76,437.43a914.72,914.72,0,0,1-74.54,168.72q-22.44,39.45-48.41,76V656.66H-11.83V-8.47H645V-9.3q8,43.32,11.75,87.57A907.8,907.8,0,0,1,614.76,437.43Z" transform="translate(68.18 66.23)"/><path class="cls-115" d="M613.1,436.89a912.87,912.87,0,0,1-74.39,168.4,897.91,897.91,0,0,1-48.32,75.85V656.66H-11.83V-8.47H643.25V-9q8,43.25,11.73,87.4A906,906,0,0,1,613.1,436.89Z" transform="translate(68.18 66.23)"/><path class="cls-116" d="M611.45,436.35A911,911,0,0,1,537.2,604.43Q514.83,643.72,489,680.14V656.66H-11.83V-8.47H641.54v-.21q8,43.17,11.71,87.24A904.21,904.21,0,0,1,611.45,436.35Z" transform="translate(68.18 66.23)"/><path class="cls-117" d="M609.8,435.81a910.19,910.19,0,0,1-74.11,167.76q-22.32,39.21-48.13,75.56V656.66H-11.83V-8.47h642.7v-42.7q5,21.27,9,42.81,7.93,43.07,11.69,87.07A902.58,902.58,0,0,1,609.8,435.81Z" transform="translate(68.18 66.23)"/><path class="cls-118" d="M608.15,435.27a907.7,907.7,0,0,1-74,167.44q-22.27,39.13-48,75.41V656.66h-498V-8.47h641V-50.78q5,21.23,8.94,42.73,7.92,43,11.66,86.9A900.79,900.79,0,0,1,608.15,435.27Z" transform="translate(68.18 66.23)"/><path class="cls-119" d="M606.49,434.73a905.84,905.84,0,0,1-73.82,167.12q-22.23,39.06-47.95,75.27V656.66H-11.83V-8.47H627.49V-50.38q5,21.18,8.92,42.64,7.9,42.92,11.64,86.74A899,899,0,0,1,606.49,434.73Z" transform="translate(68.18 66.23)"/><path class="cls-120" d="M604.84,434.19A903.93,903.93,0,0,1,531.16,601Q509,640,483.3,676.11V656.66H-11.83V-8.47H625.79V-50q5,21.13,8.91,42.56,7.89,42.83,11.62,86.57A897.36,897.36,0,0,1,604.84,434.19Z" transform="translate(68.18 66.23)"/><path class="cls-121" d="M603.19,433.66a903,903,0,0,1-73.54,166.46q-22.14,38.93-47.77,75V656.66H-11.83V-8.47H624.1V-49.59Q629.05-28.49,633-7.11q7.88,42.75,11.6,86.4A895.82,895.82,0,0,1,603.19,433.66Z" transform="translate(68.18 66.23)"/><path class="cls-122" d="M601.53,433.12a899.79,899.79,0,0,1-73.39,166.14Q506,638.1,480.47,674.1V656.66H-11.83V-8.47H622.41V-49.19q4.94,21.06,8.87,42.39,7.86,42.68,11.57,86.24A893.83,893.83,0,0,1,601.53,433.12Z" transform="translate(68.18 66.23)"/><path class="cls-123" d="M599.88,432.58A899.23,899.23,0,0,1,526.63,598.4q-22.06,38.76-47.58,74.69V656.66H-11.83V-8.47H620.71V-48.8q4.93,21,8.86,42.32,7.84,42.57,11.55,86.06A892,892,0,0,1,599.88,432.58Z" transform="translate(68.18 66.23)"/><path class="cls-124" d="M598.23,432a898.08,898.08,0,0,1-73.11,165.5q-22,38.69-47.49,74.55V656.66H-11.83V-8.47H619V-48.4q4.92,21,8.84,42.23,7.83,42.5,11.53,85.9A890.42,890.42,0,0,1,598.23,432Z" transform="translate(68.18 66.23)"/><path class="cls-125" d="M596.58,431.5a895.88,895.88,0,0,1-73,165.18q-22,38.61-47.4,74.4V656.66h-488V-8.47H617.33V-48q4.9,20.94,8.82,42.15Q634,36.56,637.66,79.88A889,889,0,0,1,596.58,431.5Z" transform="translate(68.18 66.23)"/><path class="cls-126" d="M594.92,431A894,894,0,0,1,522.1,595.82q-21.93,38.53-47.3,74.25V656.66H-11.83V-8.47H615.63V-47.61q4.9,20.9,8.81,42.07,7.8,42.33,11.48,85.56A886.82,886.82,0,0,1,594.92,431Z" transform="translate(68.18 66.23)"/><path class="cls-127" d="M593.27,430.42A891.82,891.82,0,0,1,520.59,595q-21.89,38.47-47.21,74.12V656.66H-11.83V-8.47H613.94V-47.22q4.89,20.86,8.79,42,7.78,42.26,11.46,85.4A885.19,885.19,0,0,1,593.27,430.42Z" transform="translate(68.18 66.23)"/><path class="cls-128" d="M591.62,429.88a891,891,0,0,1-72.54,164.21q-21.86,38.38-47.12,74v-11.4H-11.83V-8.47H612.25V-46.82Q617.14-26,621-4.92q7.77,42.17,11.44,85.24A883.56,883.56,0,0,1,591.62,429.88Z" transform="translate(68.18 66.23)"/><path class="cls-129" d="M590,429.34a888.47,888.47,0,0,1-72.4,163.89q-21.81,38.31-47,73.82V656.66H-11.83V-8.47H610.56V-46.42q4.88,20.78,8.75,41.82,7.76,42.08,11.41,85.06A881.76,881.76,0,0,1,590,429.34Z" transform="translate(68.18 66.23)"/><path class="cls-130" d="M588.31,428.8a886.62,886.62,0,0,1-72.25,163.57q-21.76,38.24-46.94,73.68v-9.39H-11.83V-8.47H608.86V-46q4.88,20.73,8.74,41.74,7.74,42,11.39,84.9A879.78,879.78,0,0,1,588.31,428.8Z" transform="translate(68.18 66.23)"/><path class="cls-131" d="M586.66,428.26a885.09,885.09,0,0,1-72.11,163.25Q492.83,629.67,467.71,665v-8.38H-11.83V-8.47h619V-45.63Q612-24.94,615.89-4q7.71,41.91,11.37,84.72A878.36,878.36,0,0,1,586.66,428.26Z" transform="translate(68.18 66.23)"/><path class="cls-132" d="M585,427.72a884.24,884.24,0,0,1-72,162.93Q491.37,628.73,466.29,664v-7.37H-11.83V-8.47H605.48V-45.24q4.85,20.66,8.7,41.58,7.7,41.83,11.35,84.56A876.73,876.73,0,0,1,585,427.72Z" transform="translate(68.18 66.23)"/><path class="cls-133" d="M583.36,427.18a881.36,881.36,0,0,1-71.83,162.6q-21.63,38-46.66,73.25v-6.37H-11.83V-8.47H603.78V-44.84q4.85,20.61,8.69,41.49,7.68,41.76,11.32,84.4A874.72,874.72,0,0,1,583.36,427.18Z" transform="translate(68.18 66.23)"/><path class="cls-134" d="M581.7,426.64A879.8,879.8,0,0,1,510,588.92q-21.6,37.94-46.57,73.1v-5.36H-11.83V-8.47H602.09v-36Q606.92-23.87,610.76-3q7.66,41.66,11.3,84.22A873,873,0,0,1,581.7,426.64Z" transform="translate(68.18 66.23)"/><path class="cls-135" d="M580.05,426.1a878,878,0,0,1-71.54,162Q487,625.92,462,661v-4.35H-11.83V-8.47H600.4V-44q4.82,20.53,8.65,41.33,7.65,41.58,11.28,84.06A871.32,871.32,0,0,1,580.05,426.1Z" transform="translate(68.18 66.23)"/><path class="cls-136" d="M578.4,425.56A876.19,876.19,0,0,1,507,587.2Q485.5,625,460.62,660v-3.35H-11.83V-8.47H598.7V-43.66q4.81,20.49,8.64,41.25Q615,39.1,618.6,81.48A869.72,869.72,0,0,1,578.4,425.56Z" transform="translate(68.18 66.23)"/><path class="cls-137" d="M576.75,425a874,874,0,0,1-71.27,161.32Q484,624.05,459.2,659v-2.34h-471V-8.47H597V-43.26q4.8,20.45,8.62,41.17,7.62,41.42,11.23,83.72A867.89,867.89,0,0,1,576.75,425Z" transform="translate(68.18 66.23)"/><path class="cls-138" d="M575.09,424.49a872.34,872.34,0,0,1-71.12,161Q482.56,623.12,457.78,658v-1.33H-11.83V-8.47H595.32V-42.86q4.78,20.4,8.6,41.08,7.61,41.34,11.21,83.56A866.16,866.16,0,0,1,575.09,424.49Z" transform="translate(68.18 66.23)"/><path class="cls-139" d="M573.44,424a870.52,870.52,0,0,1-71,160.67Q481.1,622.18,456.36,657v-.33H-11.83V-8.47H593.63v-34q4.77,20.37,8.58,41Q609.8,39.8,613.4,81.92A864.56,864.56,0,0,1,573.44,424Z" transform="translate(68.18 66.23)"/><path class="cls-140" d="M571.79,423.41A869.28,869.28,0,0,1,501,583.75Q479.62,621.24,455,656q-12.33,17.35-25.42,34V656.66H-11.83V-8.47H591.93v-33.6q4.77,20.33,8.57,40.92Q608.07,40,611.67,82.07A862.75,862.75,0,0,1,571.79,423.41Z" transform="translate(68.18 66.23)"/><path class="cls-141" d="M570.14,422.87a867.75,867.75,0,0,1-70.7,160Q478.16,620.3,453.53,655q-12.3,17.32-25.36,33.94V656.66h-440V-8.47H590.24V-41.68Q595-21.38,598.79-.84q7.56,41.09,11.14,83.06A860.92,860.92,0,0,1,570.14,422.87Z" transform="translate(68.18 66.23)"/><path class="cls-142" d="M568.48,422.33A865.23,865.23,0,0,1,497.93,582Q476.69,619.37,452.11,654q-12.27,17.28-25.31,33.86V656.66H-11.83V-8.47H588.55V-41.28Q593.29-21,597.08-.53q7.54,41,11.12,82.89A859.15,859.15,0,0,1,568.48,422.33Z" transform="translate(68.18 66.23)"/><path class="cls-143" d="M566.83,421.79a864.37,864.37,0,0,1-70.41,159.38Q475.23,618.43,450.69,653q-12.24,17.25-25.26,33.8v-30.1H-11.83V-8.47H586.85V-40.89q4.74,20.2,8.52,40.68,7.53,40.92,11.1,82.72A857.52,857.52,0,0,1,566.83,421.79Z" transform="translate(68.18 66.23)"/><path class="cls-144" d="M565.18,421.25a862.55,862.55,0,0,1-70.27,159.06Q473.76,617.5,449.27,652q-12.21,17.22-25.2,33.73v-29H-11.83V-8.47h597v-32q4.73,20.16,8.5,40.59,7.51,40.85,11.08,82.55A855.92,855.92,0,0,1,565.18,421.25Z" transform="translate(68.18 66.23)"/><path class="cls-145" d="M563.53,420.71A861,861,0,0,1,493.4,579.45q-21.12,37.09-45.54,71.5-12.19,17.17-25.16,33.66v-28H-11.83V-8.47h595.3V-40.09Q588.19-20,592,.41q7.5,40.77,11,82.39A854.09,854.09,0,0,1,563.53,420.71Z" transform="translate(68.18 66.23)"/><path class="cls-146" d="M561.87,420.17a858.11,858.11,0,0,1-70,158.41q-21.08,37-45.45,71.36-12.17,17.14-25.11,33.59V656.66H-11.83V-8.47h593.6V-39.7q4.72,20.09,8.47,40.43,7.49,40.67,11,82.22A852.29,852.29,0,0,1,561.87,420.17Z" transform="translate(68.18 66.23)"/><path class="cls-147" d="M560.22,419.63a850.63,850.63,0,0,1-166.8,294.92V656.66H-11.83V-8.47H580.08V-39.3q4.71,20,8.44,40.34,7.49,40.59,11,82.05A850.51,850.51,0,0,1,560.22,419.63Z" transform="translate(68.18 66.23)"/><path class="cls-148" d="M558.57,419.09A848.77,848.77,0,0,1,392.11,713.41V656.66H-11.83V-8.47H578.39V-38.91q4.7,20,8.42,40.26,7.47,40.52,11,81.89A848.87,848.87,0,0,1,558.57,419.09Z" transform="translate(68.18 66.23)"/><path class="cls-149" d="M556.92,418.55A847,847,0,0,1,390.79,712.27V656.66H-11.83V-8.47H576.7v-30q4.68,19.95,8.4,40.18,7.46,40.43,11,81.72A847.24,847.24,0,0,1,556.92,418.55Z" transform="translate(68.18 66.23)"/><path class="cls-150" d="M555.26,418A845.23,845.23,0,0,1,389.48,711.13V656.66H-11.83V-8.47H575V-38.12Q579.68-18.2,583.39,2q7.44,40.35,11,81.55A845.28,845.28,0,0,1,555.26,418Z" transform="translate(68.18 66.23)"/><path class="cls-151" d="M553.61,417.47A843.62,843.62,0,0,1,388.17,710V656.66h-400V-8.47H573.31V-37.72q4.66,19.88,8.37,40,7.43,40.26,10.93,81.39A843.65,843.65,0,0,1,553.61,417.47Z" transform="translate(68.18 66.23)"/><path class="cls-152" d="M552,416.93a841.92,841.92,0,0,1-165.1,291.92V656.66H-11.83V-8.47H571.62V-37.33Q576.27-17.49,580,2.61q7.41,40.17,10.9,81.21A841.86,841.86,0,0,1,552,416.93Z" transform="translate(68.18 66.23)"/><path class="cls-153" d="M550.31,416.39A840,840,0,0,1,385.54,707.71V656.66H-11.83V-8.47H569.92V-36.93q4.65,19.8,8.34,39.85Q585.66,43,589.14,84A840,840,0,0,1,550.31,416.39Z" transform="translate(68.18 66.23)"/><path class="cls-154" d="M548.65,415.85A838.39,838.39,0,0,1,384.23,706.57V656.66H-11.83V-8.47H568.23V-36.53q4.63,19.76,8.32,39.76,7.38,40,10.86,80.89A838.42,838.42,0,0,1,548.65,415.85Z" transform="translate(68.18 66.23)"/><path class="cls-155" d="M547,415.32A836.83,836.83,0,0,1,382.92,705.43V656.66H-11.83V-8.47H566.54V-36.14q4.62,19.71,8.3,39.69,7.36,39.93,10.84,80.71A836.89,836.89,0,0,1,547,415.32Z" transform="translate(68.18 66.23)"/><path class="cls-156" d="M545.35,414.78A835,835,0,0,1,381.6,704.29V656.66H-11.83V-8.47H564.84V-35.74q4.62,19.67,8.29,39.6,7.35,39.86,10.81,80.55A835.07,835.07,0,0,1,545.35,414.78Z" transform="translate(68.18 66.23)"/><path class="cls-157" d="M543.7,414.24A833.38,833.38,0,0,1,380.29,703.15V656.66H-11.83V-8.47h575V-35.35q4.61,19.63,8.27,39.52,7.32,39.77,10.79,80.39A833.26,833.26,0,0,1,543.7,414.24Z" transform="translate(68.18 66.23)"/><path class="cls-158" d="M542,413.7A831.43,831.43,0,0,1,379,702V656.66H-11.83V-8.47H561.46V-34.95q4.59,19.59,8.25,39.44Q577,44.17,580.48,84.7A831.48,831.48,0,0,1,542,413.7Z" transform="translate(68.18 66.23)"/><path class="cls-159" d="M540.39,413.16A829.82,829.82,0,0,1,377.67,700.87V656.66H-11.83V-8.47h571.6V-34.56Q564.35-15,568,4.8q7.29,39.6,10.75,80.05A829.85,829.85,0,0,1,540.39,413.16Z" transform="translate(68.18 66.23)"/><path class="cls-160" d="M538.74,412.62A828,828,0,0,1,376.35,699.73V656.66H-11.83V-8.47h569.9V-34.16q4.57,19.51,8.22,39.27Q573.57,44.64,577,85A828.06,828.06,0,0,1,538.74,412.62Z" transform="translate(68.18 66.23)"/><path class="cls-161" d="M537.09,412.08A826.38,826.38,0,0,1,375,698.59V656.66H-11.83V-8.47H556.38v-25.3q4.56,19.47,8.2,39.2,7.26,39.44,10.7,79.71A826.43,826.43,0,0,1,537.09,412.08Z" transform="translate(68.18 66.23)"/><path class="cls-162" d="M535.43,411.54a824.59,824.59,0,0,1-161.7,285.91V656.66H-11.83V-8.47H554.69v-24.9q4.56,19.42,8.18,39.11,7.25,39.36,10.68,79.55A824.62,824.62,0,0,1,535.43,411.54Z" transform="translate(68.18 66.23)"/><path class="cls-163" d="M533.78,411A822.82,822.82,0,0,1,372.42,696.31V656.66H-11.83V-8.47H553V-33q4.56,19.38,8.17,39,7.23,39.27,10.65,79.38A822.65,822.65,0,0,1,533.78,411Z" transform="translate(68.18 66.23)"/><path class="cls-164" d="M532.13,410.46a821,821,0,0,1-161,284.71V656.66H-11.83V-8.47H551.3V-32.58q4.55,19.35,8.15,38.95,7.21,39.18,10.63,79.21A821,821,0,0,1,532.13,410.46Z" transform="translate(68.18 66.23)"/><path class="cls-165" d="M530.47,409.92A819.36,819.36,0,0,1,369.79,694V656.66H-11.83V-8.47H549.61V-32.18q4.53,19.31,8.13,38.86,7.2,39.11,10.61,79.05A819.21,819.21,0,0,1,530.47,409.92Z" transform="translate(68.18 66.23)"/><path class="cls-166" d="M528.82,409.38A817.75,817.75,0,0,1,368.48,692.89V656.66H-11.83V-8.47H547.91V-31.79Q552.44-12.51,556,7q7.19,39,10.59,78.88A817.79,817.79,0,0,1,528.82,409.38Z" transform="translate(68.18 66.23)"/><path class="cls-167" d="M527.17,408.84a816,816,0,0,1-160,282.91V656.66h-379V-8.47H546.22V-31.39q4.51,19.22,8.1,38.7Q561.49,46.25,564.88,86A815.79,815.79,0,0,1,527.17,408.84Z" transform="translate(68.18 66.23)"/><path class="cls-168" d="M525.52,408.3A814.3,814.3,0,0,1,365.85,690.61v-34H-11.83V-8.47H544.53V-31q4.5,19.18,8.08,38.62,7.15,38.87,10.54,78.54A814.19,814.19,0,0,1,525.52,408.3Z" transform="translate(68.18 66.23)"/><path class="cls-169" d="M523.86,407.76A812.35,812.35,0,0,1,364.54,689.47V656.66H-11.83V-8.47H542.83V-30.6q4.5,19.14,8.07,38.53Q558,46.71,561.42,86.31A812.38,812.38,0,0,1,523.86,407.76Z" transform="translate(68.18 66.23)"/><path class="cls-170" d="M522.21,407.22a810.75,810.75,0,0,1-159,281.11V656.66H-11.83V-8.47h553V-30.21q4.49,19.11,8.05,38.46,7.13,38.69,10.5,78.21A810.57,810.57,0,0,1,522.21,407.22Z" transform="translate(68.18 66.23)"/><path class="cls-171" d="M520.56,406.68A809,809,0,0,1,361.91,687.19V656.66H-11.83V-8.47H539.45V-29.81q4.47,19.06,8,38.37,7.11,38.61,10.47,78A809,809,0,0,1,520.56,406.68Z" transform="translate(68.18 66.23)"/><path class="cls-172" d="M518.91,406.14A807.3,807.3,0,0,1,360.6,686.05V656.66H-11.83V-8.47H537.76V-29.41q4.46,19,8,38.28,7.1,38.54,10.45,77.88A807.35,807.35,0,0,1,518.91,406.14Z" transform="translate(68.18 66.23)"/><path class="cls-173" d="M517.25,405.61a805.56,805.56,0,0,1-158,279.3V656.66H-11.83V-8.47H536.06V-29q4.46,19,8,38.21,7.08,38.45,10.43,77.71A805.6,805.6,0,0,1,517.25,405.61Z" transform="translate(68.18 66.23)"/><path class="cls-174" d="M515.6,405.07A803.79,803.79,0,0,1,358,683.77V656.66H-11.83V-8.47H524.58V-66.23A804.66,804.66,0,0,1,552.76,87,803.81,803.81,0,0,1,515.6,405.07Z" transform="translate(68.18 66.23)"/><path class="cls-175" d="M514,404.53a802,802,0,0,1-157.29,278.1v-26H-11.83V-8.47H522.91V-65.75A802,802,0,0,1,551,87.19,802,802,0,0,1,514,404.53Z" transform="translate(68.18 66.23)"/><path class="cls-176" d="M512.3,404a800.43,800.43,0,0,1-156.95,277.5V656.66H-11.83V-8.47H521.24V-65.28a801.15,801.15,0,0,1,28,152.61A800.39,800.39,0,0,1,512.3,404Z" transform="translate(68.18 66.23)"/><path class="cls-177" d="M510.64,403.45A798.71,798.71,0,0,1,354,680.35V656.66H-11.83V-8.47h531.4V-64.8a799.89,799.89,0,0,1,28,152.28A798.58,798.58,0,0,1,510.64,403.45Z" transform="translate(68.18 66.23)"/><path class="cls-178" d="M509,402.91a797,797,0,0,1-156.27,276.3V656.66H-11.83V-8.47H517.9V-64.32a797.2,797.2,0,0,1,27.92,152A796.76,796.76,0,0,1,509,402.91Z" transform="translate(68.18 66.23)"/><path class="cls-179" d="M507.34,402.37a795.2,795.2,0,0,1-155.93,275.7V656.66H-11.83V-8.47H516.22V-63.85A795.61,795.61,0,0,1,544.09,87.77,795.16,795.16,0,0,1,507.34,402.37Z" transform="translate(68.18 66.23)"/><path class="cls-180" d="M505.69,401.83A793.59,793.59,0,0,1,350.1,676.93V656.66H-11.83V-8.47H514.55v-54.9A793.72,793.72,0,0,1,542.36,87.92,793.37,793.37,0,0,1,505.69,401.83Z" transform="translate(68.18 66.23)"/><path class="cls-181" d="M504,401.29A791.58,791.58,0,0,1,348.79,675.78V656.66H-11.83V-8.47H512.88V-62.89a792.64,792.64,0,0,1,27.75,151A791.57,791.57,0,0,1,504,401.29Z" transform="translate(68.18 66.23)"/><path class="cls-182" d="M502.38,400.75A789.83,789.83,0,0,1,347.47,674.64v-18H-11.83V-8.47h523V-62.42A791,791,0,0,1,538.89,88.21,789.75,789.75,0,0,1,502.38,400.75Z" transform="translate(68.18 66.23)"/><path class="cls-183" d="M500.73,400.21A788.22,788.22,0,0,1,346.16,673.5V656.66h-358V-8.47H509.54V-61.94a788.94,788.94,0,0,1,27.62,150.3A788.3,788.3,0,0,1,500.73,400.21Z" transform="translate(68.18 66.23)"/><path class="cls-184" d="M499.08,399.67A786.45,786.45,0,0,1,344.85,672.36v-15.7H-11.83V-8.47H507.86v-53a786.33,786.33,0,0,1,27.57,150A786.52,786.52,0,0,1,499.08,399.67Z" transform="translate(68.18 66.23)"/><path class="cls-185" d="M497.42,399.13A784.57,784.57,0,0,1,343.54,671.22V656.66H-11.83V-8.47h518V-61A786.1,786.1,0,0,1,533.7,88.65,784.71,784.71,0,0,1,497.42,399.13Z" transform="translate(68.18 66.23)"/><path class="cls-186" d="M495.77,398.59A782.83,782.83,0,0,1,342.22,670.08V656.66h-354V-8.47H504.52v-52A783.41,783.41,0,0,1,532,88.8,782.89,782.89,0,0,1,495.77,398.59Z" transform="translate(68.18 66.23)"/><path class="cls-187" d="M494.12,398.05A781.22,781.22,0,0,1,340.91,668.94V656.66H-11.83V-8.47H502.85V-60a781.56,781.56,0,0,1,27.38,149A781.11,781.11,0,0,1,494.12,398.05Z" transform="translate(68.18 66.23)"/><path class="cls-188" d="M492.47,397.51A779.77,779.77,0,0,1,339.6,667.8V656.66H-11.83V-8.47h513V-59.56A780.69,780.69,0,0,1,528.5,89.09,779.68,779.68,0,0,1,492.47,397.51Z" transform="translate(68.18 66.23)"/><path class="cls-189" d="M490.81,397A777.59,777.59,0,0,1,338.28,666.66v-10H-11.83V-8.47H499.5V-59.08A778.85,778.85,0,0,1,526.77,89.23,777.89,777.89,0,0,1,490.81,397Z" transform="translate(68.18 66.23)"/><path class="cls-190" d="M489.16,396.44A775.94,775.94,0,0,1,337,665.52v-8.86H-11.83V-8.47H497.83V-58.6a776.16,776.16,0,0,1,27.2,148A776,776,0,0,1,489.16,396.44Z" transform="translate(68.18 66.23)"/><path class="cls-191" d="M487.51,395.9A774.33,774.33,0,0,1,335.66,664.38v-7.72H-11.83V-8.47h508V-58.13A774.51,774.51,0,0,1,523.3,89.53,774.32,774.32,0,0,1,487.51,395.9Z" transform="translate(68.18 66.23)"/><path class="cls-192" d="M485.86,395.36A772.72,772.72,0,0,1,334.35,663.24v-6.58H-11.83V-8.47H494.49V-57.65A773.44,773.44,0,0,1,521.57,89.67,772.72,772.72,0,0,1,485.86,395.36Z" transform="translate(68.18 66.23)"/><path class="cls-193" d="M484.2,394.82A770.7,770.7,0,0,1,333,662.1v-5.44H-11.83V-8.47H492.82v-48.7a771.39,771.39,0,0,1,27,147A770.72,770.72,0,0,1,484.2,394.82Z" transform="translate(68.18 66.23)"/><path class="cls-194" d="M482.55,394.28A769.1,769.1,0,0,1,331.72,661v-4.3H-11.83V-8.47h503V-56.7A769.74,769.74,0,0,1,518.1,90,769.09,769.09,0,0,1,482.55,394.28Z" transform="translate(68.18 66.23)"/><path class="cls-195" d="M480.9,393.74A767.33,767.33,0,0,1,330.41,659.82v-3.16H-11.83V-8.47h501.3V-56.22a767.91,767.91,0,0,1,26.9,146.33A767.49,767.49,0,0,1,480.9,393.74Z" transform="translate(68.18 66.23)"/><path class="cls-196" d="M479.25,393.2A765.72,765.72,0,0,1,329.1,658.68v-2H-11.83V-8.47H487.8V-55.74a766.79,766.79,0,0,1,26.84,146A765.88,765.88,0,0,1,479.25,393.2Z" transform="translate(68.18 66.23)"/><path class="cls-197" d="M477.59,392.66A763.7,763.7,0,0,1,327.78,657.54v-.88H-11.83V-8.47h498v-46.8A764.39,764.39,0,0,1,512.9,90.4,763.73,763.73,0,0,1,477.59,392.66Z" transform="translate(68.18 66.23)"/><path class="cls-198" d="M475.94,392.12A762.09,762.09,0,0,1,326.47,656.4Q302,684.51,275.12,710V656.66H-11.83V-8.47H484.46V-54.79A763.28,763.28,0,0,1,511.17,90.55,762.08,762.08,0,0,1,475.94,392.12Z" transform="translate(68.18 66.23)"/><path class="cls-199" d="M474.29,391.58A760.65,760.65,0,0,1,325.16,655.26q-24.39,28.05-51.23,53.42v-52H-11.83V-8.47H482.79V-54.31a761.24,761.24,0,0,1,26.65,145A760.45,760.45,0,0,1,474.29,391.58Z" transform="translate(68.18 66.23)"/><path class="cls-200" d="M472.64,391a758.74,758.74,0,0,1-148.8,263.08q-24.31,28-51.11,53.3V656.66H-11.83V-8.47H481.11V-53.84a759.65,759.65,0,0,1,26.6,144.68A759,759,0,0,1,472.64,391Z" transform="translate(68.18 66.23)"/><path class="cls-201" d="M471,390.5A756.86,756.86,0,0,1,322.53,653q-24.27,27.91-51,53.18v-49.5H-11.83V-8.47H479.44V-53.36A757.6,757.6,0,0,1,506,91,756.85,756.85,0,0,1,471,390.5Z" transform="translate(68.18 66.23)"/><path class="cls-202" d="M469.33,390A755.25,755.25,0,0,1,321.22,651.84Q297,679.7,270.34,704.9V656.66H-11.83V-8.47h489.6V-52.88a755.7,755.7,0,0,1,26.47,144A755.22,755.22,0,0,1,469.33,390Z" transform="translate(68.18 66.23)"/><path class="cls-203" d="M467.68,389.42A753.64,753.64,0,0,1,319.91,650.7q-24.17,27.78-50.77,52.94v-47h-281V-8.47H476.1V-52.41A754.1,754.1,0,0,1,502.51,91.28,753.62,753.62,0,0,1,467.68,389.42Z" transform="translate(68.18 66.23)"/><path class="cls-204" d="M466,388.88A751.9,751.9,0,0,1,318.59,649.56q-24.1,27.72-50.64,52.81V656.66H-11.83V-8.47H474.43V-51.93A753,753,0,0,1,500.78,91.43,751.83,751.83,0,0,1,466,388.88Z" transform="translate(68.18 66.23)"/><path class="cls-205" d="M464.37,388.34A750,750,0,0,1,317.28,648.42q-24,27.66-50.53,52.69V656.66H-11.83V-8.47H472.75v-43A750.35,750.35,0,0,1,499,91.57,749.86,749.86,0,0,1,464.37,388.34Z" transform="translate(68.18 66.23)"/><path class="cls-206" d="M462.72,387.8A748.25,748.25,0,0,1,316,647.28q-24,27.6-50.42,52.57V656.66H-11.83V-8.47H471.08V-51a748.7,748.7,0,0,1,26.23,142.7A748.39,748.39,0,0,1,462.72,387.8Z" transform="translate(68.18 66.23)"/><path class="cls-207" d="M461.07,387.27A746.69,746.69,0,0,1,314.66,646.14q-23.94,27.52-50.3,52.45V656.66H-11.83V-8.47H469.41v-42A746.81,746.81,0,0,1,495.58,91.87,746.65,746.65,0,0,1,461.07,387.27Z" transform="translate(68.18 66.23)"/><path class="cls-208" d="M459.42,386.73A744.94,744.94,0,0,1,313.34,645q-23.88,27.46-50.18,52.33V656.66h-275V-8.47H467.74V-50A746.52,746.52,0,0,1,493.85,92,745,745,0,0,1,459.42,386.73Z" transform="translate(68.18 66.23)"/><path class="cls-209" d="M457.76,386.19A743.15,743.15,0,0,1,312,643.86q-23.82,27.4-50.06,52.2v-39.4H-11.83V-8.47h477.9V-49.55a743.93,743.93,0,0,1,26,141.71A743.05,743.05,0,0,1,457.76,386.19Z" transform="translate(68.18 66.23)"/><path class="cls-210" d="M456.11,385.65A741.29,741.29,0,0,1,310.72,642.72q-23.78,27.33-50,52.08V656.66H-11.83V-8.47H464.39v-40.6a741.27,741.27,0,0,1,26,141.38A741.42,741.42,0,0,1,456.11,385.65Z" transform="translate(68.18 66.23)"/><path class="cls-211" d="M454.46,385.11A739.71,739.71,0,0,1,309.4,641.58q-23.72,27.27-49.83,52V656.66H-11.83V-8.47H462.72V-48.59a740.2,740.2,0,0,1,25.93,141A739.82,739.82,0,0,1,454.46,385.11Z" transform="translate(68.18 66.23)"/><path class="cls-212" d="M452.8,384.57A737.92,737.92,0,0,1,308.09,640.44q-23.65,27.21-49.71,51.84V656.66H-11.83V-8.47H461.05V-48.12A738.54,738.54,0,0,1,486.91,92.6,737.85,737.85,0,0,1,452.8,384.57Z" transform="translate(68.18 66.23)"/><path class="cls-213" d="M451.15,384A736.31,736.31,0,0,1,306.78,639.3q-23.61,27.15-49.6,51.72V656.66h-269V-8.47H459.38V-47.64a736.69,736.69,0,0,1,25.8,140.38A736.25,736.25,0,0,1,451.15,384Z" transform="translate(68.18 66.23)"/><path class="cls-214" d="M449.5,383.49a734.61,734.61,0,0,1-144,254.67Q281.92,665.24,256,689.75V656.66H-11.83V-8.47H457.71V-47.16A735.57,735.57,0,0,1,483.45,92.89,734.41,734.41,0,0,1,449.5,383.49Z" transform="translate(68.18 66.23)"/><path class="cls-215" d="M447.85,383A732.86,732.86,0,0,1,304.15,637q-23.49,27-49.36,51.47V656.66H-11.83V-8.47H456V-46.69A733,733,0,0,1,481.72,93,732.78,732.78,0,0,1,447.85,383Z" transform="translate(68.18 66.23)"/><path class="cls-216" d="M446.19,382.41A730.78,730.78,0,0,1,302.84,635.87q-23.43,27-49.25,51.36V656.66H-11.83V-8.47H454.36V-46.21A731,731,0,0,1,480,93.18,730.82,730.82,0,0,1,446.19,382.41Z" transform="translate(68.18 66.23)"/><path class="cls-217" d="M444.54,381.87a729.17,729.17,0,0,1-143,252.86Q278.15,661.63,252.4,686V656.66H-11.83V-8.47H452.69V-45.73A729.89,729.89,0,0,1,478.25,93.33,729.19,729.19,0,0,1,444.54,381.87Z" transform="translate(68.18 66.23)"/><path class="cls-218" d="M442.89,381.33A727.47,727.47,0,0,1,300.22,633.59q-23.34,26.83-49,51.12V656.66h-263V-8.47H451V-45.26a728.25,728.25,0,0,1,25.5,138.74A727.55,727.55,0,0,1,442.89,381.33Z" transform="translate(68.18 66.23)"/><path class="cls-219" d="M441.24,380.79A725.73,725.73,0,0,1,298.9,632.45q-23.26,26.77-48.89,51V656.66H-11.83V-8.47H449.35V-44.78a727.18,727.18,0,0,1,25.44,138.4A726,726,0,0,1,441.24,380.79Z" transform="translate(68.18 66.23)"/><path class="cls-220" d="M439.58,380.25a723.94,723.94,0,0,1-142,251.06Q274.37,658,248.81,682.18V656.66H-11.83V-8.47H447.68V-44.3A724.48,724.48,0,0,1,473.05,93.77,724,724,0,0,1,439.58,380.25Z" transform="translate(68.18 66.23)"/><path class="cls-221" d="M437.93,379.71A722.17,722.17,0,0,1,296.28,630.17q-23.16,26.64-48.66,50.75V656.66H-11.83V-8.47H446V-43.83A722.89,722.89,0,0,1,471.32,93.91,722.19,722.19,0,0,1,437.93,379.71Z" transform="translate(68.18 66.23)"/><path class="cls-222" d="M436.28,379.17A720.49,720.49,0,0,1,295,629q-23.1,26.58-48.54,50.63v-23H-11.83V-8.47H444.33V-43.35A721,721,0,0,1,469.59,94.06,720.54,720.54,0,0,1,436.28,379.17Z" transform="translate(68.18 66.23)"/><path class="cls-223" d="M434.63,378.63a718.88,718.88,0,0,1-141,249.26q-23,26.52-48.43,50.51V656.66h-257V-8.47H442.66v-34.4a719.89,719.89,0,0,1,25.2,137.08A719.1,719.1,0,0,1,434.63,378.63Z" transform="translate(68.18 66.23)"/><path class="cls-224" d="M433,378.1A717.14,717.14,0,0,1,292.34,626.75q-23,26.44-48.31,50.38V656.66H-11.83V-8.47H441V-42.4A718.12,718.12,0,0,1,466.12,94.35,717,717,0,0,1,433,378.1Z" transform="translate(68.18 66.23)"/><path class="cls-225" d="M431.32,377.56A715.53,715.53,0,0,1,291,625.61q-22.95,26.39-48.2,50.26V656.66H-11.83V-8.47H439.32V-41.92A716.23,716.23,0,0,1,464.39,94.5,715.39,715.39,0,0,1,431.32,377.56Z" transform="translate(68.18 66.23)"/><path class="cls-226" d="M429.67,377a713.53,713.53,0,0,1-140,247.45q-22.87,26.32-48.07,50.14v-18H-11.83V-8.47H437.64v-33a713.61,713.61,0,0,1,25,136.08A713.78,713.78,0,0,1,429.67,377Z" transform="translate(68.18 66.23)"/><path class="cls-227" d="M428,376.48A711.93,711.93,0,0,1,288.4,623.33q-22.83,26.25-48,50V656.66H-11.83V-8.47H436V-41A712.73,712.73,0,0,1,460.92,94.79,712,712,0,0,1,428,376.48Z" transform="translate(68.18 66.23)"/><path class="cls-228" d="M426.36,375.94A710.14,710.14,0,0,1,287.09,622.19q-22.77,26.19-47.85,49.9V656.66H-11.83V-8.47H434.3v-32A710.84,710.84,0,0,1,459.19,94.94,710,710,0,0,1,426.36,375.94Z" transform="translate(68.18 66.23)"/><path class="cls-229" d="M424.71,375.4A708.53,708.53,0,0,1,285.78,621.05q-22.72,26.13-47.73,49.77V656.66H-11.83V-8.47H432.63V-40A709,709,0,0,1,457.46,95.08,708.58,708.58,0,0,1,424.71,375.4Z" transform="translate(68.18 66.23)"/><path class="cls-230" d="M423.06,374.86a706.78,706.78,0,0,1-138.6,245A707.21,707.21,0,0,1,185,714.11V656.66H-11.83V-8.47H431V-39.54A708,708,0,0,1,455.73,95.23,706.93,706.93,0,0,1,423.06,374.86Z" transform="translate(68.18 66.23)"/><path class="cls-231" d="M421.41,374.32A704.92,704.92,0,0,1,283.15,618.77a705.45,705.45,0,0,1-99.27,94V656.66H-11.83V-8.47H429.28V-39.06A705.3,705.3,0,0,1,454,95.38,704.92,704.92,0,0,1,421.41,374.32Z" transform="translate(68.18 66.23)"/><path class="cls-232" d="M419.75,373.78A703.13,703.13,0,0,1,281.84,617.63a704.2,704.2,0,0,1-99,93.74V656.66H-11.83V-8.47H427.61V-38.58a703.3,703.3,0,0,1,24.65,134.1A703.15,703.15,0,0,1,419.75,373.78Z" transform="translate(68.18 66.23)"/><path class="cls-233" d="M418.1,373.24A701.55,701.55,0,0,1,280.52,616.49,703,703,0,0,1,181.75,710V656.66H-11.83V-8.47H425.94V-38.11A702.44,702.44,0,0,1,450.53,95.67,701.52,701.52,0,0,1,418.1,373.24Z" transform="translate(68.18 66.23)"/><path class="cls-234" d="M416.45,372.7A699.94,699.94,0,0,1,279.21,615.35a700.67,700.67,0,0,1-98.53,93.28v-52H-11.83V-8.47h436.1V-37.63A700.58,700.58,0,0,1,448.8,95.81,699.91,699.91,0,0,1,416.45,372.7Z" transform="translate(68.18 66.23)"/><path class="cls-235" d="M414.8,372.16A698.24,698.24,0,0,1,277.9,614.21a699,699,0,0,1-98.29,93v-50.6H-11.83V-8.47H422.6V-37.15A698.67,698.67,0,0,1,447.06,96,698.09,698.09,0,0,1,414.8,372.16Z" transform="translate(68.18 66.23)"/><path class="cls-236" d="M413.14,371.62A696.29,696.29,0,0,1,276.59,613.07a696.54,696.54,0,0,1-98,92.81V656.66H-11.83V-8.47H420.92V-36.68A696.26,696.26,0,0,1,445.33,96.11,696.31,696.31,0,0,1,413.14,371.62Z" transform="translate(68.18 66.23)"/><path class="cls-237" d="M411.49,371.08A694.55,694.55,0,0,1,275.27,611.93a695.32,695.32,0,0,1-97.8,92.58V656.66H-11.83V-8.47H419.25V-36.2A695.19,695.19,0,0,1,443.6,96.25,694.71,694.71,0,0,1,411.49,371.08Z" transform="translate(68.18 66.23)"/><path class="cls-238" d="M409.84,370.54A692.94,692.94,0,0,1,274,610.79a693,693,0,0,1-97.56,92.35V656.66H-11.83V-8.47H417.58V-35.72A694.08,694.08,0,0,1,441.87,96.4,692.89,692.89,0,0,1,409.84,370.54Z" transform="translate(68.18 66.23)"/><path class="cls-239" d="M408.19,370A691.24,691.24,0,0,1,272.65,609.65a691.84,691.84,0,0,1-97.32,92.12V656.66H-11.83V-8.47H415.91V-35.25a691.63,691.63,0,0,1,24.22,131.8A691.05,691.05,0,0,1,408.19,370Z" transform="translate(68.18 66.23)"/><path class="cls-240" d="M406.53,369.46A689.45,689.45,0,0,1,271.34,608.51a690.55,690.55,0,0,1-97.07,91.89V656.66H-11.83V-8.47H414.24v-26.3A690.42,690.42,0,0,1,438.4,96.69,689.46,689.46,0,0,1,406.53,369.46Z" transform="translate(68.18 66.23)"/><path class="cls-241" d="M404.88,368.93A687.75,687.75,0,0,1,270,607.37,688.24,688.24,0,0,1,173.2,699V656.66h-185V-8.47H412.56V-34.29A687.76,687.76,0,0,1,436.67,96.84,687.72,687.72,0,0,1,404.88,368.93Z" transform="translate(68.18 66.23)"/><path class="cls-242" d="M403.23,368.39A686,686,0,0,1,268.71,606.23a686.48,686.48,0,0,1-96.58,91.43v-41h-184V-8.47H410.89V-33.82a686.14,686.14,0,0,1,24,130.8A685.92,685.92,0,0,1,403.23,368.39Z" transform="translate(68.18 66.23)"/><path class="cls-243" d="M401.58,367.85A684.28,684.28,0,0,1,267.4,605.09a685.3,685.3,0,0,1-96.34,91.2V656.66H-11.83V-8.47H409.22V-33.34a685,685,0,0,1,24,130.47A684.29,684.29,0,0,1,401.58,367.85Z" transform="translate(68.18 66.23)"/><path class="cls-244" d="M399.92,367.31A682.35,682.35,0,0,1,266.08,604a682.89,682.89,0,0,1-96.09,91V656.66H-11.83V-8.47H407.55V-32.86A683.13,683.13,0,0,1,431.47,97.28,682.33,682.33,0,0,1,399.92,367.31Z" transform="translate(68.18 66.23)"/><path class="cls-245" d="M398.27,366.77a680.91,680.91,0,0,1-133.5,236,681.13,681.13,0,0,1-95.85,90.73V656.66H-11.83V-8.47H405.88V-32.39A681.53,681.53,0,0,1,429.74,97.42,680.73,680.73,0,0,1,398.27,366.77Z" transform="translate(68.18 66.23)"/><path class="cls-246" d="M396.62,366.23A679.3,679.3,0,0,1,263.46,601.67a680,680,0,0,1-95.61,90.5V656.66H-11.83V-8.47h416V-31.91A680.25,680.25,0,0,1,428,97.57,679.09,679.09,0,0,1,396.62,366.23Z" transform="translate(68.18 66.23)"/><path class="cls-247" d="M395,365.69A677.44,677.44,0,0,1,262.15,600.53a678.67,678.67,0,0,1-95.36,90.27V656.66H-11.83V-8.47H402.53v-23A677.6,677.6,0,0,1,426.27,97.72,677.43,677.43,0,0,1,395,365.69Z" transform="translate(68.18 66.23)"/><path class="cls-248" d="M393.31,365.15A675.51,675.51,0,0,1,260.83,599.39a676.9,676.9,0,0,1-95.11,90V656.66H-11.83V-8.47H400.86V-31A675.85,675.85,0,0,1,424.54,97.86,675.48,675.48,0,0,1,393.31,365.15Z" transform="translate(68.18 66.23)"/><path class="cls-249" d="M391.66,364.61A673.9,673.9,0,0,1,259.52,598.25a674.6,674.6,0,0,1-94.87,89.81v-31.4H-11.83V-8.47h411v-22A674.73,674.73,0,0,1,422.81,98,673.85,673.85,0,0,1,391.66,364.61Z" transform="translate(68.18 66.23)"/><path class="cls-250" d="M390,364.07a672.3,672.3,0,0,1-131.8,233,673.42,673.42,0,0,1-94.63,89.58v-30H-11.83V-8.47H397.52V-30A672.87,672.87,0,0,1,421.07,98.15,672.05,672.05,0,0,1,390,364.07Z" transform="translate(68.18 66.23)"/><path class="cls-251" d="M388.36,363.53A670.6,670.6,0,0,1,256.9,596a671.11,671.11,0,0,1-94.39,89.35V656.66H-11.83V-8.47H395.85V-29.53A671.22,671.22,0,0,1,419.34,98.3,670.24,670.24,0,0,1,388.36,363.53Z" transform="translate(68.18 66.23)"/><path class="cls-252" d="M386.7,363A668.37,668.37,0,0,1,255.58,594.82a668.74,668.74,0,0,1-94.14,89.12V656.66H-11.83V-8.47h406V-29a668.56,668.56,0,0,1,23.44,127.5A668.64,668.64,0,0,1,386.7,363Z" transform="translate(68.18 66.23)"/><path class="cls-253" d="M385.05,362.45A666.77,666.77,0,0,1,254.27,593.68a667,667,0,0,1-93.9,88.89V656.66H-11.83V-8.47H392.5v-20.1A667.49,667.49,0,0,1,415.88,98.59,667,667,0,0,1,385.05,362.45Z" transform="translate(68.18 66.23)"/><path class="cls-254" d="M383.4,361.91A665.16,665.16,0,0,1,253,592.54,665.26,665.26,0,0,1,159.3,681.2V656.66H-11.83V-8.47H390.83V-28.1A665.82,665.82,0,0,1,414.14,98.74,665.22,665.22,0,0,1,383.4,361.91Z" transform="translate(68.18 66.23)"/><path class="cls-255" d="M381.74,361.37a663.14,663.14,0,0,1-130.1,230,664.51,664.51,0,0,1-93.4,88.43V656.66H-11.83V-8.47h401V-27.62A663.93,663.93,0,0,1,412.41,98.89,663.21,663.21,0,0,1,381.74,361.37Z" transform="translate(68.18 66.23)"/><path class="cls-256" d="M380.09,360.83A661.69,661.69,0,0,1,250.33,590.26a662.2,662.2,0,0,1-93.16,88.2v-21.8h-169V-8.47H387.49V-27.14A662.72,662.72,0,0,1,410.68,99,661.61,661.61,0,0,1,380.09,360.83Z" transform="translate(68.18 66.23)"/><path class="cls-257" d="M378.44,360.29A659.92,659.92,0,0,1,249,589.12a660.48,660.48,0,0,1-92.92,88V656.66H-11.83V-8.47H385.81v-18.2A659.51,659.51,0,0,1,408.94,99.18,660,660,0,0,1,378.44,360.29Z" transform="translate(68.18 66.23)"/><path class="cls-258" d="M376.79,359.75A658.31,658.31,0,0,1,247.71,588,658.72,658.72,0,0,1,155,675.72V656.66H-11.83V-8.47h396V-26.19A658.44,658.44,0,0,1,407.21,99.32,658.18,658.18,0,0,1,376.79,359.75Z" transform="translate(68.18 66.23)"/><path class="cls-259" d="M375.13,359.22A656.43,656.43,0,0,1,246.39,586.84,657.5,657.5,0,0,1,154,674.35V656.66H-11.83V-8.47h394.3V-25.71a657.32,657.32,0,0,1,23,125.18A656.45,656.45,0,0,1,375.13,359.22Z" transform="translate(68.18 66.23)"/><path class="cls-260" d="M373.48,358.68a654.73,654.73,0,0,1-128.4,227A654.55,654.55,0,0,1,152.89,673V656.66H-11.83V-8.47H380.8V-25.24A655.67,655.67,0,0,1,403.75,99.62,654.84,654.84,0,0,1,373.48,358.68Z" transform="translate(68.18 66.23)"/><path class="cls-261" d="M371.83,358.14A653.13,653.13,0,0,1,243.77,584.56a653.37,653.37,0,0,1-92,87V656.66H-11.83V-8.47h391V-24.76A653.66,653.66,0,0,1,402,99.76,652.87,652.87,0,0,1,371.83,358.14Z" transform="translate(68.18 66.23)"/><path class="cls-262" d="M370.18,357.6A651.36,651.36,0,0,1,242.46,583.42a651.61,651.61,0,0,1-91.71,86.81V656.66H-11.83V-8.47H377.45V-24.28A651.79,651.79,0,0,1,400.28,99.91,651.23,651.23,0,0,1,370.18,357.6Z" transform="translate(68.18 66.23)"/><path class="cls-263" d="M368.52,357.06A649.43,649.43,0,0,1,241.14,582.28a649.77,649.77,0,0,1-91.45,86.58v-12.2H-11.83V-8.47H375.78V-23.81a650,650,0,0,1,22.77,123.86A649.62,649.62,0,0,1,368.52,357.06Z" transform="translate(68.18 66.23)"/><path class="cls-264" d="M366.87,356.52a647.64,647.64,0,0,1-127,224.62,648.59,648.59,0,0,1-91.21,86.35V656.66H-11.83V-8.47H374.11V-23.33A648.14,648.14,0,0,1,396.82,100.2,648,648,0,0,1,366.87,356.52Z" transform="translate(68.18 66.23)"/><path class="cls-265" d="M365.22,356a646,646,0,0,1-126.7,224,646.84,646.84,0,0,1-91,86.12v-9.46H-11.83V-8.47H372.44V-22.85a646.23,646.23,0,0,1,22.64,123.2A646,646,0,0,1,365.22,356Z" transform="translate(68.18 66.23)"/><path class="cls-266" d="M363.57,355.44A644.29,644.29,0,0,1,237.2,578.86a645.07,645.07,0,0,1-90.72,85.89v-8.09H-11.83V-8.47h382.6V-22.38a645.41,645.41,0,0,1,22.58,122.87A644.38,644.38,0,0,1,363.57,355.44Z" transform="translate(68.18 66.23)"/><path class="cls-267" d="M361.91,354.9a642.66,642.66,0,0,1-126,222.82,643.31,643.31,0,0,1-90.48,85.66v-6.72H-11.83V-8.47H369.1V-21.9a643.51,643.51,0,0,1,22.52,122.54A642.58,642.58,0,0,1,361.91,354.9Z" transform="translate(68.18 66.23)"/><path class="cls-268" d="M360.26,354.36A640.8,640.8,0,0,1,234.58,576.58,641.48,641.48,0,0,1,144.34,662v-5.34H-11.83V-8.47H367.42V-21.42a640.86,640.86,0,0,1,22.47,122.21A640.79,640.79,0,0,1,360.26,354.36Z" transform="translate(68.18 66.23)"/><path class="cls-269" d="M358.61,353.82A639.19,639.19,0,0,1,233.27,575.44a639.72,639.72,0,0,1-90,85.19v-4H-11.83V-8.47H365.75V-20.95a640,640,0,0,1,22.4,121.88A639.18,639.18,0,0,1,358.61,353.82Z" transform="translate(68.18 66.23)"/><path class="cls-270" d="M357,353.28a637.44,637.44,0,0,1-125,221,638,638,0,0,1-89.75,85v-2.6h-154V-8.47H364.08v-12a638.12,638.12,0,0,1,22.34,121.55A637.55,637.55,0,0,1,357,353.28Z" transform="translate(68.18 66.23)"/><path class="cls-271" d="M355.3,352.74A635.65,635.65,0,0,1,230.64,573.16a636.13,636.13,0,0,1-89.5,84.73v-1.23h-153V-8.47H362.41V-20a636.12,636.12,0,0,1,22.28,121.21A635.59,635.59,0,0,1,355.3,352.74Z" transform="translate(68.18 66.23)"/><path class="cls-272" d="M353.65,352.2A634,634,0,0,1,229.33,572a635,635,0,0,1-89.26,84.5q-24.18,18.79-50,35.18v-35H-11.83V-8.47H360.74v-11A635.26,635.26,0,0,1,383,101.37,633.94,633.94,0,0,1,353.65,352.2Z" transform="translate(68.18 66.23)"/><path class="cls-273" d="M352,351.66A632.19,632.19,0,0,1,228,570.88a632.65,632.65,0,0,1-89,84.27q-24.1,18.75-49.86,35.08V656.66h-101V-8.47H359.06V-19a632.58,632.58,0,0,1,22.16,120.56A632.12,632.12,0,0,1,352,351.66Z" transform="translate(68.18 66.23)"/><path class="cls-274" d="M350.35,351.12A630.44,630.44,0,0,1,226.7,569.74a631.42,631.42,0,0,1-88.77,84q-24,18.69-49.72,35V656.66h-100V-8.47H357.39V-18.56a630.73,630.73,0,0,1,22.1,120.22A630.7,630.7,0,0,1,350.35,351.12Z" transform="translate(68.18 66.23)"/><path class="cls-275" d="M348.69,350.58a628.65,628.65,0,0,1-123.3,218,630.25,630.25,0,0,1-88.53,83.81q-24,18.65-49.58,34.89V656.66H-11.83V-8.47H355.72v-9.62a629.86,629.86,0,0,1,22,119.9A628.71,628.71,0,0,1,348.69,350.58Z" transform="translate(68.18 66.23)"/><path class="cls-276" d="M347,350.05a627,627,0,0,1-123,217.41A627.29,627.29,0,0,1,135.79,651q-23.91,18.6-49.45,34.8V656.66H-11.83V-8.47H354.05v-9.14A627.17,627.17,0,0,1,376,102,627,627,0,0,1,347,350.05Z" transform="translate(68.18 66.23)"/><path class="cls-277" d="M345.39,349.51c-53.75,164.66-169.15,292-312.29,364.64V656.66H-11.83V-8.47H352.38v-8.66A626,626,0,0,1,374.29,102.1,625.38,625.38,0,0,1,345.39,349.51Z" transform="translate(68.18 66.23)"/><path class="cls-278" d="M343.74,349C290.14,513.17,175.05,640.11,32.32,712.6V656.66H-11.83V-8.47H350.7v-8.19a624.33,624.33,0,0,1,21.86,118.91A623.57,623.57,0,0,1,343.74,349Z" transform="translate(68.18 66.23)"/><path class="cls-279" d="M342.08,348.43C288.63,512.18,173.87,638.76,31.53,711.05V656.66H-11.83V-8.47H349v-7.71a622.33,622.33,0,0,1,21.8,118.57A621.79,621.79,0,0,1,342.08,348.43Z" transform="translate(68.18 66.23)"/><path class="cls-280" d="M340.43,347.89C287.13,511.18,172.68,637.41,30.74,709.5V656.66H-11.83V-8.47H347.36V-15.7a620.42,620.42,0,0,1,21.73,118.24A620.13,620.13,0,0,1,340.43,347.89Z" transform="translate(68.18 66.23)"/><path class="cls-281" d="M338.78,347.35C285.63,510.19,171.5,636.07,30,708V656.66H-11.83V-8.47H345.69v-6.76a618.77,618.77,0,0,1,21.67,117.92A618.32,618.32,0,0,1,338.78,347.35Z" transform="translate(68.18 66.23)"/><path class="cls-282" d="M337.13,346.81c-53,162.38-166.81,287.91-308,359.59V656.66h-41V-8.47H344v-6.28a617.7,617.7,0,0,1,21.61,117.58A616.72,616.72,0,0,1,337.13,346.81Z" transform="translate(68.18 66.23)"/><path class="cls-283" d="M335.47,346.27C282.62,508.2,169.13,633.37,28.38,704.85V656.66H-11.83V-8.47H342.34v-5.8A615,615,0,0,1,363.9,103,614.91,614.91,0,0,1,335.47,346.27Z" transform="translate(68.18 66.23)"/><path class="cls-284" d="M333.82,345.73C281.11,507.2,168,632,27.59,703.3V656.66H-11.83V-8.47h352.5V-13.8a613.38,613.38,0,0,1,21.49,116.93A613.11,613.11,0,0,1,333.82,345.73Z" transform="translate(68.18 66.23)"/><path class="cls-285" d="M332.17,345.19c-52.56,161-165.4,285.48-305.36,356.56V656.66H-11.83V-8.47H339v-4.85a612.31,612.31,0,0,1,21.43,116.59A611.33,611.33,0,0,1,332.17,345.19Z" transform="translate(68.18 66.23)"/><path class="cls-285" d="M330.52,344.65C278.11,505.21,165.58,629.32,26,700.2V656.66H-11.83V-8.47H337.33v-4.37A610.42,610.42,0,0,1,358.7,103.42,609.88,609.88,0,0,1,330.52,344.65Z" transform="translate(68.18 66.23)"/><path class="cls-286" d="M314,339.27c-50.92,156-160.25,276.6-295.86,345.47V656.66h-30V-8.47H302.33V-62.2q10.44,26.57,18.32,54.11a593.08,593.08,0,0,1,20.77,113A592.34,592.34,0,0,1,314,339.27Z" transform="translate(68.18 66.23)"/><path class="cls-287" d="M297.55,333.89C248.11,485.35,142,602.42,10.32,669.28V656.66H-11.83V-8.47h298v-47.4Q296.32-30.07,304-3.34a575.92,575.92,0,0,1,20.16,109.67A575.22,575.22,0,0,1,297.55,333.89Z" transform="translate(68.18 66.23)"/><path class="cls-288" d="M281.07,328.51C233.12,475.41,130.16,589,2.47,653.82q-23.94,12.16-49,22l34.69-19.16V-8.47H270.05V-49.53q9.82,25,17.25,51a558.34,558.34,0,0,1,19.56,106.37A557.85,557.85,0,0,1,281.07,328.51Z" transform="translate(68.18 66.23)"/><path class="cls-289" d="M264.59,323.13a540.56,540.56,0,0,1-270,315.23q-23.21,11.79-47.47,21.32l41-3V-8.47H253.91V-43.2Q263.44-19,270.63,6.17a541,541,0,0,1,18.94,103.08A540.5,540.5,0,0,1,264.59,323.13Z" transform="translate(68.18 66.23)"/><path class="cls-290" d="M248.11,317.75A523.27,523.27,0,0,1-13.23,622.9h1.4V-8.47h249.6v-28.4Q247-13.41,254,10.93a523.54,523.54,0,0,1,18.34,99.78A523.17,523.17,0,0,1,248.11,317.75Z" transform="translate(68.18 66.23)"/><path class="cls-291" d="M231.62,312.37A506,506,0,0,1-21.08,607.44h9.25V-8.47H221.63V-30.53q8.91,22.68,15.65,46.21A506.19,506.19,0,0,1,255,112.17,505.81,505.81,0,0,1,231.62,312.37Z" transform="translate(68.18 66.23)"/><path class="cls-292" d="M215.14,307A488.72,488.72,0,0,1-28.93,592h17.1V-8.47H205.49V-24.2Q214.1-2.28,220.6,20.43a489,489,0,0,1,17.13,93.2A488.48,488.48,0,0,1,215.14,307Z" transform="translate(68.18 66.23)"/><path class="cls-293" d="M198.66,301.61A471.43,471.43,0,0,1-36.78,576.53h25v-585H170.75v-50.8A471.47,471.47,0,0,1,198.66,301.61Z" transform="translate(68.18 66.23)"/><path class="cls-294" d="M182.18,296.23A454.17,454.17,0,0,1-44.63,561.07h32.8V-8.47H155.29V-51.42A454.16,454.16,0,0,1,182.18,296.23Z" transform="translate(68.18 66.23)"/><path class="cls-295" d="M165.7,290.85A436.88,436.88,0,0,1-52.48,545.61h40.65V-8.47H139.83v-35.1A436.85,436.85,0,0,1,165.7,290.85Z" transform="translate(68.18 66.23)"/><path class="cls-296" d="M149.21,285.47A419.57,419.57,0,0,1-60.33,530.15h48.5V-8.47h136.2V-35.72A419.55,419.55,0,0,1,149.21,285.47Z" transform="translate(68.18 66.23)"/><path class="cls-297" d="M132.73,280.09A402.31,402.31,0,0,1-68.18,514.69h56.35V-8.47H108.92v-19.4A402.34,402.34,0,0,1,132.73,280.09Z" transform="translate(68.18 66.23)"/><path class="cls-298" d="M116.25,274.71a385,385,0,0,1-75.5,133.5,385.87,385.87,0,0,1-54.21,51.32h1.63v-468H93.46V-20A385,385,0,0,1,116.25,274.71Z" transform="translate(68.18 66.23)"/><path class="cls-299" d="M99.77,269.33A367.82,367.82,0,0,1,27.65,396.84a368.13,368.13,0,0,1-51.77,49h12.29V-8.47H78v-3.7A367.77,367.77,0,0,1,99.77,269.33Z" transform="translate(68.18 66.23)"/><path class="cls-300" d="M83.29,264A350.5,350.5,0,0,1,14.56,385.47a351.1,351.1,0,0,1-49.34,46.71h23V-8.47H26.4v-52.8a354,354,0,0,1,36.14,57A350.47,350.47,0,0,1,83.29,264Z" transform="translate(68.18 66.23)"/><path class="cls-301" d="M66.81,258.57A333.21,333.21,0,0,1,1.47,374.09,333,333,0,0,1-45.44,418.5h33.61v-427H12.72V-50.61A335.78,335.78,0,0,1,47.08,3.53,333.21,333.21,0,0,1,66.81,258.57Z" transform="translate(68.18 66.23)"/><path class="cls-301" d="M50.32,253.19A315.88,315.88,0,0,1-11.62,362.72a316.41,316.41,0,0,1-44.48,42.1h44.27V-8.47H-.95V-39.95A318.54,318.54,0,0,1,31.62,11.39,315.83,315.83,0,0,1,50.32,253.19Z" transform="translate(68.18 66.23)"/><path class="cls-302" d="M42.4,250.6A307.57,307.57,0,0,1-17.92,357.25h6.09V-8.47h4.3V-34.82a310.18,310.18,0,0,1,31.72,50A307.62,307.62,0,0,1,42.4,250.6Z" transform="translate(68.18 66.23)"/><path class="cls-303" d="M34.47,248A299.19,299.19,0,0,1-24.22,351.78h12.39V-8.47L-14.11-29.7A302.38,302.38,0,0,1,16.75,18.94,299.26,299.26,0,0,1,34.47,248Z" transform="translate(68.18 66.23)"/><path class="cls-304" d="M26.54,245.43a290.91,290.91,0,0,1-57,100.88h18.68V-8.47L-59.47-65.54A292.43,292.43,0,0,1,9.32,22.71,291,291,0,0,1,26.54,245.43Z" transform="translate(68.18 66.23)"/><path class="cls-305" d="M18.61,242.84a282.49,282.49,0,0,1-55.42,98h25V-8.47L-64.94-59.24A284,284,0,0,1,1.88,26.49,282.57,282.57,0,0,1,18.61,242.84Z" transform="translate(68.18 66.23)"/><path class="cls-306" d="M10.69,240.25a274.43,274.43,0,0,1-53.8,95.12h31.28V-8.47l-22-5.85A278.25,278.25,0,0,1-5.55,30.26,274.36,274.36,0,0,1,10.69,240.25Z" transform="translate(68.18 66.23)"/><path class="cls-307" d="M2.76,237.67A265.9,265.9,0,0,1-49.41,329.9h37.58V34H-13A266,266,0,0,1,2.76,237.67Z" transform="translate(68.18 66.23)"/><path class="cls-308" d="M-5.17,235.08A257.61,257.61,0,0,1-55.7,324.43h43.87V37.82h-8.59A257.71,257.71,0,0,1-5.17,235.08Z" transform="translate(68.18 66.23)"/><path class="cls-309" d="M-11.83,232.49V41.59h-16a249.41,249.41,0,0,1,14.77,190.9Z" transform="translate(68.18 66.23)"/><path class="cls-310" d="M-11.83,229.9V45.37H-35.29A241.08,241.08,0,0,1-21,229.9Z" transform="translate(68.18 66.23)"/><path class="cls-311" d="M-11.83,227.32V49.14h-30.9A232.74,232.74,0,0,1-28.95,227.32Z" transform="translate(68.18 66.23)"/><path class="cls-312" d="M-11.83,224.73v0Z" transform="translate(68.18 66.23)"/><path class="cls-313" d="M-11.83,222.14v0Z" transform="translate(68.18 66.23)"/><path class="cls-314" d="M-11.83,219.55v0Z" transform="translate(68.18 66.23)"/><path class="cls-315" d="M-11.83,217v0Z" transform="translate(68.18 66.23)"/><path class="cls-316" d="M-11.83,214.38v0Z" transform="translate(68.18 66.23)"/><path class="cls-317" d="M-11.83,211.79v0Z" transform="translate(68.18 66.23)"/><path class="cls-318" d="M-11.83,209.2v0Z" transform="translate(68.18 66.23)"/><path class="cls-319" d="M-11.83,206.62v0Z" transform="translate(68.18 66.23)"/><path class="cls-320" d="M-11.83,204v0Z" transform="translate(68.18 66.23)"/><path class="cls-321" d="M-11.83,201.44v0Z" transform="translate(68.18 66.23)"/><path class="cls-322" d="M-11.83,198.85v0Z" transform="translate(68.18 66.23)"/><path class="cls-323" d="M-11.83,196.27v0Z" transform="translate(68.18 66.23)"/><path class="cls-324" d="M-11.83,193.68v0Z" transform="translate(68.18 66.23)"/><path class="cls-325" d="M-11.83,191.09v0Z" transform="translate(68.18 66.23)"/><path class="cls-326" d="M-11.83,188.5v0Z" transform="translate(68.18 66.23)"/><path class="cls-327" d="M-11.83,185.91v0Z" transform="translate(68.18 66.23)"/><path class="cls-328" d="M-11.83,183.33v0Z" transform="translate(68.18 66.23)"/><path class="cls-329" d="M-11.83,180.74v0Z" transform="translate(68.18 66.23)"/><path class="cls-330" d="M-11.83,178.15v0Z" transform="translate(68.18 66.23)"/><path class="cls-331" d="M-11.83,175.56v0Z" transform="translate(68.18 66.23)"/><path class="cls-332" d="M-11.83,173v0Z" transform="translate(68.18 66.23)"/><path class="cls-333" d="M-11.83,170.39v0Z" transform="translate(68.18 66.23)"/><path class="cls-334" d="M-11.83,167.8v0Z" transform="translate(68.18 66.23)"/><path class="cls-335" d="M-11.83,165.21v0Z" transform="translate(68.18 66.23)"/><path class="cls-336" d="M-11.83,162.63v0Z" transform="translate(68.18 66.23)"/><path class="cls-337" d="M-11.83,160v0Z" transform="translate(68.18 66.23)"/><path class="cls-338" d="M-11.83,157.45v0Z" transform="translate(68.18 66.23)"/></g><path class="cls-339" d="M60.4,241.86,295.12,70.37v32.76a41.53,41.53,0,0,1-17,33.54L50.21,303.17l-4.84-15A41.56,41.56,0,0,1,60.4,241.86Z" transform="translate(68.18 66.23)"/><path class="cls-339" d="M88.63,329.32l206.49-151v32.77a41.57,41.57,0,0,1-17,33.54l-199.63,146-4.84-15A41.55,41.55,0,0,1,88.63,329.32Z" transform="translate(68.18 66.23)"/><path class="cls-339" d="M116.81,416.47,295.12,286.3v32.75a41.54,41.54,0,0,1-17.06,33.56L106.6,477.77l-4.83-15A41.54,41.54,0,0,1,116.81,416.47Z" transform="translate(68.18 66.23)"/><path class="cls-45" d="M675.65,269.33c-.08.34-.17.67-.25,1L567.12,603.56C295.12,648.35,332.78,78.7,337.93,0a41.2,41.2,0,0,1,25.18,8L660.28,223.88A41.41,41.41,0,0,1,675.65,269.33Z" transform="translate(68.18 66.23)"/></g></g></svg>